<svg xmlns="http://www.w3.org/2000/svg" viewBox="0 0 500 500"><g id="freepik--background-complete--inject-23"><path d="M59.4,385.07a3,3,0,0,1,3.09,0l.79.46.82.41a2.91,2.91,0,0,1,1.72,2.55l.12,3.81,12.39-.39-.12-3.8a3,3,0,0,1,1.56-2.67,17,17,0,0,0,1.57-1,3,3,0,0,1,3.07-.2l3.35,1.8,5.86-10.93-3.35-1.79a3,3,0,0,1-1.54-2.67,14.24,14.24,0,0,0-.06-1.85A3,3,0,0,1,90,366.08l3.23-2-6.53-10.53-3.25,2a2.92,2.92,0,0,1-3.08,0c-.26-.16-.52-.31-.79-.45l-.82-.41a2.94,2.94,0,0,1-1.72-2.56L77,348.3l-12.38.38.12,3.8a3,3,0,0,1-1.56,2.67,17,17,0,0,0-1.57,1,2.93,2.93,0,0,1-3.08.2l-3.34-1.79-5.86,10.93,3.34,1.79a3,3,0,0,1,1.54,2.67,16.26,16.26,0,0,0,.06,1.85,3,3,0,0,1-1.37,2.78l-3.23,2,6.54,10.53Zm3.1-19.56a10.15,10.15,0,1,1,4.15,13.74A10.16,10.16,0,0,1,62.5,365.51Z" style="fill:#ebebeb"></path><path d="M94.46,341a2.06,2.06,0,0,1,1.92-1h1.28a2.06,2.06,0,0,1,1.91,1l1.33,2.31,7.52-4.34-1.33-2.31a2.07,2.07,0,0,1,.07-2.16,9.6,9.6,0,0,0,.65-1.12,2.08,2.08,0,0,1,1.84-1.14h2.66v-8.68h-2.66a2.08,2.08,0,0,1-1.84-1.14,9.6,9.6,0,0,0-.65-1.12,2.09,2.09,0,0,1-.07-2.17l1.33-2.3-7.52-4.34-1.34,2.31a2.05,2.05,0,0,1-1.91,1l-.64,0-.63,0a2.06,2.06,0,0,1-1.92-1l-1.33-2.31-7.52,4.34,1.33,2.3a2.07,2.07,0,0,1-.07,2.16,9.73,9.73,0,0,0-.65,1.13,2.08,2.08,0,0,1-1.84,1.14H81.72v8.68h2.66a2.08,2.08,0,0,1,1.84,1.14,9.73,9.73,0,0,0,.65,1.13,2.07,2.07,0,0,1,.07,2.16l-1.33,2.3,7.52,4.34ZM89.9,327.87A7.11,7.11,0,1,1,97,335,7.12,7.12,0,0,1,89.9,327.87Z" style="fill:#ebebeb"></path><path d="M422.19,75.07a2.05,2.05,0,0,1,1,1.91c0,.22,0,.43,0,.64s0,.43,0,.65a2.06,2.06,0,0,1-1,1.91l-2.31,1.33L424.23,89l2.3-1.33a2.07,2.07,0,0,1,2.17.07,11.27,11.27,0,0,0,1.12.65A2.07,2.07,0,0,1,431,90.25v2.66h8.68V90.25a2.07,2.07,0,0,1,1.14-1.83,11.27,11.27,0,0,0,1.12-.65,2.07,2.07,0,0,1,2.17-.07l2.3,1.33,4.34-7.52-2.32-1.34a2.06,2.06,0,0,1-1-1.91c0-.21,0-.42,0-.64s0-.42,0-.64a2.05,2.05,0,0,1,1-1.91l2.31-1.33-4.34-7.52-2.3,1.33a2.05,2.05,0,0,1-2.16-.08c-.36-.23-.74-.45-1.13-.65A2.06,2.06,0,0,1,439.64,65V62.33H431V65a2.06,2.06,0,0,1-1.14,1.83c-.39.2-.77.42-1.13.65a2.05,2.05,0,0,1-2.16.08l-2.3-1.33-4.34,7.52Zm13.11-4.56a7.11,7.11,0,1,1-7.11,7.11A7.12,7.12,0,0,1,435.3,70.51Z" style="fill:#ebebeb"></path><path d="M407,134.25a35.75,35.75,0,1,1-35.36-41V129Z" style="fill:#ebebeb"></path><path d="M414.61,121.73a34.75,34.75,0,0,1-.39,5.24l-35.35-5.24V86a35.71,35.71,0,0,1,35.74,35.74Z" style="fill:#dbdbdb"></path><path d="M74.13,193v29.47L55,244.88A29.47,29.47,0,0,1,74.13,193Z" style="fill:#ebebeb"></path><path d="M109.6,225.47A29.47,29.47,0,0,1,61,247.88l19.12-22.41V196a29.45,29.45,0,0,1,29.47,29.47Z" style="fill:#ebebeb"></path><path d="M109.6,225.47A29.47,29.47,0,0,1,61,247.88l19.12-22.41V196a29.45,29.45,0,0,1,29.47,29.47Z" style="fill:#dbdbdb"></path><rect x="60.51" y="170.09" width="1" height="38.01" style="fill:#c7c7c7"></rect><path d="M61,170.59a3.17,3.17,0,1,1,3.17-3.16A3.17,3.17,0,0,1,61,170.59Zm0-5.33a2.17,2.17,0,1,0,2.17,2.17A2.17,2.17,0,0,0,61,165.26Z" style="fill:#c7c7c7"></path><rect x="69.09" y="164.76" width="29.53" height="1.33" style="fill:#c7c7c7"></rect><rect x="69.09" y="167.43" width="16.71" height="1.33" style="fill:#c7c7c7"></rect><rect x="375.46" y="141.7" width="38.01" height="1" style="fill:#c7c7c7"></rect><path d="M416.14,145.37a3.17,3.17,0,1,1,3.16-3.17A3.16,3.16,0,0,1,416.14,145.37Zm0-5.33a2.17,2.17,0,1,0,2.16,2.16A2.16,2.16,0,0,0,416.14,140Z" style="fill:#c7c7c7"></path><rect x="425.8" y="140.2" width="29.53" height="1.33" style="fill:#c7c7c7"></rect><rect x="425.8" y="142.87" width="16.71" height="1.33" style="fill:#c7c7c7"></rect><path d="M210.77,132H73.35V42.56H210.77ZM74.35,131H209.77V43.56H74.35Z" style="fill:#ebebeb"></path><path d="M210.77,55.32H73.35V42.56H210.77Zm-136.42-1H209.77V43.56H74.35Z" style="fill:#ebebeb"></path><path d="M84.88,49a3,3,0,1,1-3-3A3,3,0,0,1,84.88,49Z" style="fill:#c7c7c7"></path><path d="M97,49a3,3,0,1,1-3-3A3,3,0,0,1,97,49Z" style="fill:#ebebeb"></path><path d="M109,49a3,3,0,1,1-3-3A3,3,0,0,1,109,49Z" style="fill:#E32636"></path></g><g id="freepik--Shadow--inject-23"><ellipse cx="364.95" cy="447.51" rx="106.25" ry="18.45" style="fill:#ebebeb"></ellipse></g><g id="freepik--Floor--inject-23"><polygon points="29.71 423.48 84.78 423.24 139.85 423.15 250 422.98 360.15 423.15 415.22 423.23 470.29 423.48 415.22 423.72 360.15 423.81 250 423.98 139.85 423.81 84.78 423.72 29.71 423.48" style="fill:#263238"></polygon></g><g id="freepik--Window--inject-23"><rect x="100.56" y="69.96" width="298.89" height="334.76" style="fill:#37474f"></rect><rect x="105.75" y="75.26" width="289.27" height="213.44" style="fill:#263238"></rect><rect x="190.88" y="94.55" width="119" height="2.64" style="fill:#455a64"></rect><rect x="211.23" y="100.05" width="78.31" height="2.64" style="fill:#455a64"></rect><path d="M291.27,250.49a21.73,21.73,0,1,1-10.46-40.77v21.72Z" style="fill:#fff"></path><path d="M293.69,214l-12.88,17.48V209.72A21.53,21.53,0,0,1,293.69,214Z" style="fill:#E32636"></path><path d="M302.53,231.44a21.6,21.6,0,0,1-5.76,14.73l-16-14.73L293.69,214A21.66,21.66,0,0,1,302.53,231.44Z" style="fill:#a6a6a6"></path><path d="M304.58,256.25a21.76,21.76,0,0,1-5.49,4.32l-10.46-19Z" style="fill:#455a64"></path><path d="M222.17,210.55l-6,20.89v21.73a21.73,21.73,0,0,1,0-43.45A22.05,22.05,0,0,1,222.17,210.55Z" style="fill:#a6a6a6"></path><path d="M229.07,248.94a21.57,21.57,0,0,1-12.86,4.23V231.44Z" style="fill:#fff"></path><path d="M237.93,231.44a21.67,21.67,0,0,1-8.86,17.5l-12.86-17.5,16.89-13.65A21.62,21.62,0,0,1,237.93,231.44Z" style="fill:#455a64"></path><path d="M237.93,210.75,221,224.41l6-20.9A21.78,21.78,0,0,1,237.93,210.75Z" style="fill:#E32636"></path><path d="M151.6,209.72v21.72L137,247.5a21.72,21.72,0,0,1,14.63-37.78Z" style="fill:#455a64"></path><path d="M167.16,216.27,151.6,231.44V209.72A21.69,21.69,0,0,1,167.16,216.27Z" style="fill:#E32636"></path><path d="M173.33,231.44a21.69,21.69,0,0,1-8,16.84L151.6,231.44l15.56-15.17A21.71,21.71,0,0,1,173.33,231.44Z" style="fill:#a6a6a6"></path><path d="M165.33,254a21.73,21.73,0,0,1-28.36-.79l14.63-16.05Z" style="fill:#fff"></path><path d="M345.42,209.72v43.45a21.73,21.73,0,0,1,0-43.45Z" style="fill:#E32636"></path><path d="M350.9,210.42l-5.48,21V209.72A22,22,0,0,1,350.9,210.42Z" style="fill:#263238"></path><path d="M370.88,230.19a21.76,21.76,0,0,1-1.5,8l-20.22-8,5.49-21A21.71,21.71,0,0,1,370.88,230.19Z" style="fill:#455a64"></path><path d="M365.63,239.41a21.74,21.74,0,0,1-20.21,13.76V231.44Z" style="fill:#a6a6a6"></path><rect x="141.59" y="265.95" width="25.36" height="2.44" style="fill:#455a64"></rect><rect x="141.59" y="271.03" width="16.83" height="2.44" style="fill:#455a64"></rect><rect x="129.88" y="265.91" width="7.59" height="7.59" style="fill:#455a64"></rect><rect x="206.19" y="265.95" width="25.36" height="2.44" style="fill:#455a64"></rect><rect x="206.19" y="271.03" width="16.83" height="2.44" style="fill:#455a64"></rect><rect x="194.49" y="265.91" width="7.59" height="7.59" style="fill:#a6a6a6"></rect><rect x="270.8" y="265.95" width="25.36" height="2.44" style="fill:#455a64"></rect><rect x="270.8" y="271.03" width="16.83" height="2.44" style="fill:#455a64"></rect><rect x="259.09" y="265.91" width="7.59" height="7.59" style="fill:#fff"></rect><rect x="335.4" y="265.95" width="25.36" height="2.44" style="fill:#455a64"></rect><rect x="335.4" y="271.03" width="16.83" height="2.44" style="fill:#455a64"></rect><rect x="323.7" y="265.91" width="7.59" height="7.59" style="fill:#E32636"></rect><path d="M129.88,115.88l60.25-.15c20.09,0,40.17,0,60.25.15-20.08.14-40.16.1-60.25.16Z" style="fill:#455a64"></path><path d="M129.88,120.67l60.25-.15c20.09,0,40.17,0,60.25.15-20.08.14-40.16.1-60.25.16Z" style="fill:#455a64"></path><path d="M129.88,125.46l60.25-.16c20.09.06,40.17,0,60.25.16-20.08.14-40.16.1-60.25.16Z" style="fill:#455a64"></path><path d="M129.88,130.25l60.25-.16c20.09.06,40.17,0,60.25.16-20.08.13-40.16.1-60.25.15Z" style="fill:#455a64"></path><path d="M129.88,135l60.25-.16c20.09.06,40.17,0,60.25.16-20.08.13-40.16.1-60.25.15Z" style="fill:#455a64"></path><path d="M129.88,139.83l60.25-.16c20.09.06,40.17,0,60.25.16-20.08.13-40.16.1-60.25.15Z" style="fill:#455a64"></path><path d="M129.88,144.61l60.25-.15c20.09,0,40.17,0,60.25.15-20.08.14-40.16.11-60.25.16Z" style="fill:#455a64"></path><path d="M129.88,149.4l60.25-.15c20.09.05,40.17,0,60.25.15-20.08.14-40.16.1-60.25.16Z" style="fill:#455a64"></path><path d="M129.88,154.19l60.25-.15c20.09.05,40.17,0,60.25.15-20.08.14-40.16.1-60.25.16Z" style="fill:#455a64"></path><path d="M129.88,159l60.25-.16c20.09.06,40.17,0,60.25.16-20.08.13-40.16.1-60.25.16Z" style="fill:#455a64"></path><path d="M129.88,163.77l60.25-.16c20.09.06,40.17,0,60.25.16-20.08.13-40.16.1-60.25.15Z" style="fill:#455a64"></path><path d="M129.88,168.56l60.25-.16c20.09.06,40.17,0,60.25.16-20.08.13-40.16.1-60.25.15Z" style="fill:#455a64"></path><path d="M129.88,173.35l60.25-.16c20.09.05,40.17,0,60.25.16-20.08.13-40.16.1-60.25.15Z" style="fill:#455a64"></path><path d="M129.88,178.13l60.25-.15c20.09.05,40.17,0,60.25.15-20.08.14-40.16.1-60.25.16Z" style="fill:#455a64"></path><path d="M129.88,182.92l60.25-.15c20.09,0,40.17,0,60.25.15-20.08.14-40.16.1-60.25.16Z" style="fill:#455a64"></path><rect x="142.62" y="149.4" width="9.14" height="39.1" style="fill:#E32636"></rect><rect x="159.58" y="132.86" width="9.14" height="55.64" style="fill:#fff"></rect><rect x="176.53" y="144.78" width="9.14" height="43.72" style="fill:#a6a6a6"></rect><rect x="193.48" y="130.25" width="9.14" height="58.26" style="fill:#E32636"></rect><rect x="210.43" y="138.06" width="9.14" height="50.44" style="fill:#fff"></rect><rect x="227.38" y="166.64" width="9.14" height="21.86" style="fill:#a6a6a6"></rect><path d="M133.15,112.52l.25,19,.17,19c.12,12.67.15,25.33.17,38l-.59-.57,29.31,0,29.31.07,29.3.19,29.31.34-29.31.35-29.3.19-29.31.07-29.31,0h-.59v-.58c0-12.66.05-25.32.17-38l.17-19Z" style="fill:#455a64"></path><rect x="142.62" y="192.52" width="9.14" height="0.81" style="fill:#455a64"></rect><rect x="159.58" y="192.52" width="9.14" height="0.81" style="fill:#455a64"></rect><rect x="176.53" y="192.52" width="9.14" height="0.81" style="fill:#455a64"></rect><rect x="193.48" y="192.52" width="9.14" height="0.81" style="fill:#455a64"></rect><rect x="210.43" y="192.52" width="9.14" height="0.81" style="fill:#455a64"></rect><rect x="227.38" y="192.52" width="9.14" height="0.81" style="fill:#455a64"></rect><path d="M318,145.16a25.2,25.2,0,0,1-15.35,23.18l-9.84-23.18Z" style="fill:#E32636"></path><path d="M289.6,143.43l9.84,23.19s0,0-.05,0c-.77.31-1.54.6-2.31.84a25.16,25.16,0,0,1-32.64-24,25.7,25.7,0,0,1,1.13-7.48,25.14,25.14,0,0,1,16.55-16.55,25.32,25.32,0,0,1,15,0,25.12,25.12,0,0,1,17.7,24Z" style="fill:#E32636"></path><path d="M289.6,143.43l9.84,23.19s0,0-.05,0c-.77.31-1.54.6-2.31.84a25.16,25.16,0,0,1-32.64-24A25.18,25.18,0,0,1,313.65,136a25.37,25.37,0,0,1,1.13,7.48Z" style="fill:#a6a6a6"></path><path d="M289.61,143.44,273.2,162.52a25.17,25.17,0,1,1,41.58-19.08Z" style="fill:#455a64"></path><polygon points="331.03 176.79 312.01 176.79 288.46 153.24 288.8 152.9 312.21 176.31 331.03 176.31 331.03 176.79" style="fill:#263238"></polygon><rect x="287.3" y="151.75" width="2.65" height="2.65" style="fill:#263238"></rect><polygon points="331.03 158.57 309.6 158.57 299.42 148.4 299.76 148.06 309.8 158.09 331.03 158.09 331.03 158.57" style="fill:#263238"></polygon><rect x="298.27" y="146.9" width="2.65" height="2.65" style="fill:#263238"></rect><rect x="298.62" y="140.54" width="32.41" height="0.49" style="fill:#263238"></rect><rect x="296.95" y="139.46" width="2.65" height="2.65" style="fill:#263238"></rect><rect x="338.4" y="138.13" width="23.54" height="2.19" style="fill:#455a64"></rect><rect x="338.4" y="142.7" width="30.55" height="2.19" style="fill:#455a64"></rect><rect x="338.4" y="147.27" width="16.33" height="2.19" style="fill:#455a64"></rect><rect x="328.37" y="138.13" width="5.31" height="5.31" style="fill:#455a64"></rect><rect x="338.4" y="155.82" width="26.41" height="2.19" style="fill:#455a64"></rect><rect x="338.4" y="160.4" width="22.02" height="2.19" style="fill:#455a64"></rect><rect x="338.4" y="164.97" width="30.55" height="2.19" style="fill:#455a64"></rect><rect x="328.37" y="155.82" width="5.31" height="5.31" style="fill:#E32636"></rect><rect x="338.4" y="173.52" width="26.41" height="2.19" style="fill:#455a64"></rect><rect x="338.4" y="178.09" width="22.02" height="2.19" style="fill:#455a64"></rect><rect x="338.4" y="182.67" width="30.55" height="2.19" style="fill:#455a64"></rect><rect x="328.37" y="173.52" width="5.31" height="5.31" style="fill:#a6a6a6"></rect><rect x="105.75" y="294.29" width="133.42" height="104.71" style="fill:#263238"></rect><rect x="124.89" y="303.42" width="95.12" height="2.11" style="fill:#455a64"></rect><rect x="141.16" y="307.82" width="62.59" height="2.11" style="fill:#455a64"></rect><rect x="130.02" y="384.54" width="5.33" height="5.33" style="fill:#E32636"></rect><rect x="139.06" y="384.54" width="58.4" height="1.58" style="fill:#455a64"></rect><rect x="139.06" y="388.3" width="37.73" height="1.58" style="fill:#455a64"></rect><path d="M126.49,331c15.32-.1,30.64-.07,46-.11s30.64,0,46,.11c-15.32.09-30.64.07-46,.11S141.81,331.07,126.49,331Z" style="fill:#455a64"></path><path d="M126.49,340.06c15.32-.1,30.64-.07,46-.11s30.64,0,46,.11c-15.32.1-30.64.07-46,.11S141.81,340.15,126.49,340.06Z" style="fill:#455a64"></path><path d="M126.49,349.14c15.32-.09,30.64-.07,46-.11s30.64,0,46,.11c-15.32.1-30.64.07-46,.11S141.81,349.24,126.49,349.14Z" style="fill:#455a64"></path><path d="M126.49,358.22c15.32-.09,30.64-.07,46-.11s30.64,0,46,.11c-15.32.1-30.64.08-46,.12S141.81,358.32,126.49,358.22Z" style="fill:#455a64"></path><path d="M126.49,367.31c15.32-.1,30.64-.07,46-.11s30.64,0,46,.11c-15.32.09-30.64.07-46,.11S141.81,367.4,126.49,367.31Z" style="fill:#455a64"></path><path d="M145,325.07c.14,8.49.1,17,.16,25.46s0,17-.16,25.46c-.14-8.49-.1-17-.16-25.46S144.87,333.56,145,325.07Z" style="fill:#455a64"></path><path d="M160.9,325.07c.13,8.49.1,17,.15,25.46s0,17-.15,25.46c-.14-8.49-.11-17-.16-25.46S160.76,333.56,160.9,325.07Z" style="fill:#455a64"></path><path d="M176.79,325.07c.14,8.49.1,17,.16,25.46s0,17-.16,25.46c-.13-8.49-.1-17-.15-25.46S176.66,333.56,176.79,325.07Z" style="fill:#455a64"></path><path d="M192.69,325.07c.13,8.49.1,17,.15,25.46s0,17-.15,25.46c-.14-8.49-.1-17-.16-25.46S192.55,333.56,192.69,325.07Z" style="fill:#455a64"></path><path d="M208.58,325.07c.14,8.49.1,17,.16,25.46s0,17-.16,25.46c-.13-8.49-.1-17-.15-25.46S208.45,333.56,208.58,325.07Z" style="fill:#455a64"></path><path d="M128.81,360.72c2.8,0,4.48-9.23,8.45-9.23s4.39,6.73,7.74,6.73,3.24-11.82,7.74-11.82,3.45,4.8,8.16,4.8,2.92-11.14,7.84-11.14,2.93,15.35,8,15.35c3.24,0,4.5-4.88,8.37-4.88,2.56,0,4.07,2.44,7.42,2.44s4.08-9.37,8.27-9.37,4.66,5.54,7.73,5.54,4.19-9.08,9.83-9.08V376h-89.6Z" style="fill:#E32636;opacity:0.5"></path><path d="M128.81,361.16v-.88c.85,0,2-2.16,2.87-3.73,1.47-2.71,3-5.5,5.58-5.5s3.73,2.05,4.82,3.85c.85,1.42,1.73,2.88,2.92,2.88s1.95-2.84,2.62-4.91c1.08-3.4,2.2-6.91,5.12-6.91,2.6,0,3.63,1.38,4.53,2.59s1.63,2.2,3.63,2.2c1.8,0,2.51-2.6,3.2-5.11.8-3,1.64-6,4.64-6s3.74,3.85,4.55,7.93c.65,3.3,1.46,7.41,3.5,7.41,1.22,0,2.22-1,3.27-2.08,1.29-1.31,2.75-2.79,5.1-2.79a7.23,7.23,0,0,1,3.58,1.19,7.64,7.64,0,0,0,3.84,1.25c1.16,0,2.22-2.23,3.07-4,1.25-2.63,2.54-5.35,5.2-5.35s3.93,1.77,5.07,3.33c.84,1.14,1.63,2.22,2.66,2.22s1.89-1.73,2.77-3.25c1.51-2.6,3.39-5.83,7.06-5.83v.88c-2.82,0-4.45,2.81-5.89,5.29-1.23,2.12-2.21,3.8-3.94,3.8s-2.76-1.31-3.78-2.7-2.09-2.85-4-2.85-2.95,2.52-4,4.75c-1.18,2.48-2.19,4.62-4.26,4.62A9.09,9.09,0,0,1,188,352a5.9,5.9,0,0,0-2.8-1c-1.69,0-2.9,1.23-4.06,2.41s-2.43,2.47-4.31,2.47c-3.13,0-3.92-4-4.75-8.18-.63-3.19-1.42-7.17-3.3-7.17s-2.73,2.82-3.41,5.3c-.82,3-1.59,5.84-4.43,5.84a5.26,5.26,0,0,1-4.75-2.68c-.84-1.13-1.57-2.12-3.41-2.12s-3,3.45-3.9,6.22c-1,3.13-1.79,5.61-3.84,5.61s-3-1.66-4.08-3.42-2-3.31-3.66-3.31-3.21,2.73-4.4,4.92C131.55,359.27,130.52,361.16,128.81,361.16Z" style="fill:#E32636"></path><path d="M128.81,325.62c.1,8.4.19,16.79.2,25.19L129.1,376l-.29-.21,44.8.06,22.4,0,22.4.11-22.4.11-22.4,0-44.8.06h-.3V376l.1-25.18C128.62,342.41,128.71,334,128.81,325.62Z" style="fill:#455a64"></path><rect x="244.72" y="294.29" width="150.3" height="104.71" style="fill:#263238"></rect><rect x="272.31" y="303.42" width="95.12" height="2.11" style="fill:#455a64"></rect><rect x="288.57" y="307.82" width="62.59" height="2.11" style="fill:#455a64"></rect><rect x="261.11" y="362" width="6.67" height="6.67" style="fill:#E32636"></rect><rect x="272.42" y="362" width="35.93" height="1.97" style="fill:#455a64"></rect><rect x="272.42" y="366.7" width="47.21" height="1.97" style="fill:#455a64"></rect><rect x="261.11" y="374.64" width="6.67" height="6.67" style="fill:#455a64"></rect><rect x="272.42" y="374.64" width="27.3" height="1.97" style="fill:#455a64"></rect><rect x="272.42" y="379.34" width="47.21" height="1.97" style="fill:#455a64"></rect><path d="M282.53,336.1a11.63,11.63,0,1,1-1.54-5.79A11.64,11.64,0,0,1,282.53,336.1Z" style="fill:#455a64"></path><path d="M281,330.31l-10.1,5.79V324.46A11.65,11.65,0,0,1,281,330.31Z" style="fill:#E32636"></path><circle cx="270.89" cy="336.1" r="8.05" transform="translate(-104.17 549.81) rotate(-80.81)" style="fill:#fff"></circle><rect x="267.55" y="334.31" width="6.7" height="0.95" style="fill:#263238"></rect><rect x="265.89" y="336.94" width="10.02" height="0.95" style="fill:#a6a6a6"></rect><path d="M315.09,336.1a10.55,10.55,0,0,1-.13,1.7,11.55,11.55,0,1,1,.13-1.7Z" style="fill:#455a64"></path><path d="M315.09,336.1a10.55,10.55,0,0,1-.13,1.7l-11.51-1.7V324.46a11.63,11.63,0,0,1,11.64,11.64Z" style="fill:#E32636"></path><circle cx="303.45" cy="336.1" r="8.05" transform="translate(-93.2 554.54) rotate(-76.76)" style="fill:#fff"></circle><rect x="300.1" y="334.31" width="6.7" height="0.95" style="fill:#263238"></rect><rect x="298.44" y="336.94" width="10.02" height="0.95" style="fill:#a6a6a6"></rect><path d="M347.87,336.1a11.63,11.63,0,1,1-1.54-5.79A11.64,11.64,0,0,1,347.87,336.1Z" style="fill:#455a64"></path><path d="M347.87,336.1A11.64,11.64,0,0,1,340.41,347l-4.17-10.86V324.46a11.63,11.63,0,0,1,11.63,11.64Z" style="fill:#E32636"></path><path d="M344.28,336.1a8,8,0,1,1-8-8.05A8,8,0,0,1,344.28,336.1Z" style="fill:#fff"></path><rect x="332.89" y="334.31" width="6.7" height="0.95" style="fill:#263238"></rect><rect x="331.23" y="336.94" width="10.02" height="0.95" style="fill:#a6a6a6"></rect><path d="M380.48,336.1a11.63,11.63,0,1,1-1.54-5.79A11.62,11.62,0,0,1,380.48,336.1Z" style="fill:#455a64"></path><path d="M380.48,336.1A11.64,11.64,0,0,1,361.29,345l7.55-8.85V324.46a11.63,11.63,0,0,1,11.64,11.64Z" style="fill:#E32636"></path><circle cx="368.84" cy="336.1" r="8.05" transform="translate(-26 641.23) rotate(-80.04)" style="fill:#fff"></circle><rect x="365.49" y="334.31" width="6.7" height="0.95" style="fill:#263238"></rect><rect x="363.83" y="336.94" width="10.02" height="0.95" style="fill:#a6a6a6"></rect><rect x="100.56" y="61.69" width="298.89" height="8.27" style="fill:#a6a6a6"></rect><path d="M107.13,65.83a2,2,0,1,1-2-2A2.05,2.05,0,0,1,107.13,65.83Z" style="fill:#c7c7c7"></path><path d="M115.5,65.83a2,2,0,1,1-2-2A2.05,2.05,0,0,1,115.5,65.83Z" style="fill:#fff"></path><path d="M123.87,65.83a2.05,2.05,0,1,1-2.05-2A2.05,2.05,0,0,1,123.87,65.83Z" style="fill:#E32636"></path></g><g id="freepik--Plant--inject-23"><path d="M73.43,370.2a222.55,222.55,0,0,0-.33-23.67,302.38,302.38,0,0,0-7.41-48.23c-2.07-8.92-4.62-17.69-7.27-26.46-.08-.26-.5-.19-.43.09,8.2,30.89,14.94,62.78,14.47,94.9-.13,9-1.17,17.81-2,26.74,0,.24.37.34.42.09A133.8,133.8,0,0,0,73.43,370.2Z" style="fill:#E32636"></path><path d="M58,271.93s-12.43,31.55-9.65,39,8.52,9,8.52,9-7.6,10.86-2.29,21,17.12,9.71,17.91,21.25C72.48,362.18,73.14,313.9,58,271.93Z" style="fill:#E32636"></path><path d="M71.13,342.25a.25.25,0,0,0,0-.17,289,289,0,0,0-12-63.47c0-.06-.12,0-.1,0q3.69,13.85,6.52,27.84a13.71,13.71,0,0,0-5.93-3.31s-.06,0,0,.07a15.58,15.58,0,0,1,6.12,4.09q.55,2.74,1.06,5.49c-2.78-3.1-6.63-4.65-10.49-6.11,0,0-.08.06,0,.09,4,1.63,8,3.74,10.74,7.2q1.42,7.85,2.49,15.76A14.94,14.94,0,0,0,62,325.5c-.08,0-.13.1,0,.13a15.57,15.57,0,0,1,7.52,4.82l0,0q.38,2.77.7,5.57A19.06,19.06,0,0,0,65,332.92c-.05,0-.08.05,0,.07a17.93,17.93,0,0,1,5.2,3.45s.05,0,.07,0c.2,1.76.41,3.53.59,5.3a25.3,25.3,0,0,0-10.54-7.53c-.08,0-.13.1,0,.13a27.36,27.36,0,0,1,10.39,8,.24.24,0,0,0,.26.09q.41,4.07.71,8.16s.07,0,.06,0C71.55,347.82,71.35,345,71.13,342.25Z" style="fill:#263238"></path><path d="M61.14,300a15.54,15.54,0,0,0-7.47-2.33c-.06,0-.07.09,0,.09a29.5,29.5,0,0,1,7.39,2.42A.1.1,0,0,0,61.14,300Z" style="fill:#263238"></path><path d="M62.65,333.43A15.91,15.91,0,0,0,57,331.51c-.07,0-.07.1,0,.11a21,21,0,0,1,5.54,1.95A.08.08,0,0,0,62.65,333.43Z" style="fill:#263238"></path><path d="M106.1,311.41A84.42,84.42,0,0,0,91.72,324,51.55,51.55,0,0,0,81.63,341.1,127.54,127.54,0,0,0,74.11,382a100,100,0,0,0,2.21,23,.22.22,0,0,0,.43-.08A129.3,129.3,0,0,1,77,364.72c2.14-13.05,5.49-27.25,13.79-37.85,4.51-5.78,10.15-10.32,15.72-15C106.78,311.6,106.4,311.2,106.1,311.41Z" style="fill:#E32636"></path><path d="M75.94,372.62a77.17,77.17,0,0,1,10.49-13.4c6.21-6.22,11.45-10.64,12.26-14.75s-6.23-7.14-6.23-7.14,8.61,1.55,11-2.07,3.49-24.52,3.49-24.52-15.65,11.17-23,26.84S75.94,372.62,75.94,372.62Z" style="fill:#E32636"></path><path d="M101.5,316.1c-6.59,6.47-13.22,13.36-17.1,21.86a85.21,85.21,0,0,0-3.46,9h0c-.2.62-.41,1.24-.59,1.86a.3.3,0,0,0,0,.1,178.44,178.44,0,0,0-4.44,19.32c0,.05,0,.07.06,0,.68-3.27,1.42-6.56,2.25-9.85a.15.15,0,0,0,.09,0,13.73,13.73,0,0,1,4.11-1,.09.09,0,0,0,0-.17,15.63,15.63,0,0,0-4.06.74c.76-3,1.58-5.91,2.51-8.82a43.41,43.41,0,0,1,9.28-1.22s0-.05,0-.05a35.4,35.4,0,0,0-9.13.78c.16-.5.33-1,.5-1.5a49.69,49.69,0,0,1,6.17-1,0,0,0,1,0,0-.06,30,30,0,0,0-6.05.73c.85-2.52,1.77-5,2.79-7.42a45.05,45.05,0,0,1,3-5.74,37,37,0,0,1,5-.89s0-.08,0-.09a13.51,13.51,0,0,0-4.69.47c.83-1.34,1.69-2.64,2.62-3.9h0c3.51-.78,7.07-1.5,10.66-.82.06,0,.08-.1,0-.11-3.42-.9-6.81-.38-10.21.29l1.13-1.47a23.52,23.52,0,0,1,6.56-1,0,0,0,0,0,0-.07,17.07,17.07,0,0,0-6.12.54c2.9-3.6,6.11-7,9.28-10.34C101.77,316,101.65,315.94,101.5,316.1Z" style="fill:#263238"></path><path d="M101.32,330.36a14.09,14.09,0,0,0-3.11-.11.11.11,0,0,0,0,.22c1,0,2.06-.05,3.09,0C101.39,330.48,101.4,330.36,101.32,330.36Z" style="fill:#263238"></path><path d="M90.05,350.65a14,14,0,0,0-4.82,1s0,.07,0,.06c1.59-.37,3.21-.53,4.81-.79C90.2,350.86,90.19,350.65,90.05,350.65Z" style="fill:#263238"></path><path d="M86.68,343.64a10.09,10.09,0,0,0-2.05.18.07.07,0,0,0,0,.13,10.9,10.9,0,0,0,2.06-.1C86.8,343.83,86.8,343.64,86.68,343.64Z" style="fill:#263238"></path><path d="M30.05,333.61a71.33,71.33,0,0,1,14.55,6.85A43.71,43.71,0,0,1,56.72,352a107.79,107.79,0,0,1,15.54,31.39,83.58,83.58,0,0,1,3.53,19.13.19.19,0,0,1-.37,0A108.52,108.52,0,0,0,65.94,370C61.19,360,55.2,349.24,46,342.57c-5-3.63-10.6-6-16.19-8.52C29.54,333.92,29.75,333.5,30.05,333.61Z" style="fill:#E32636"></path><path d="M68.61,376.17A65.12,65.12,0,0,0,57,367.75c-6.47-3.59-11.73-6-13.33-9.1s3.39-7.22,3.39-7.22-6.61,3.24-9.35.86-8.49-19-8.49-19S44.49,338.68,54,349.67,68.61,376.17,68.61,376.17Z" style="fill:#E32636"></path><path d="M67.81,372.74c-7.63-14.32-17.8-27.28-31.75-35.83h0a70.11,70.11,0,0,1,10.21,8,16.15,16.15,0,0,0-8.2,1.73,0,0,0,0,0,0,.09,22.51,22.51,0,0,1,8.44-1.43.24.24,0,0,0,.09,0c.5.47,1,.94,1.47,1.42a26.82,26.82,0,0,0-4.38.59s0,.06,0,.06a21.83,21.83,0,0,1,4.63-.38,94.67,94.67,0,0,1,7.19,8.16,7.35,7.35,0,0,0-3.06.23.06.06,0,0,0,0,.11,16.26,16.26,0,0,1,3.27,0c.42.53.84,1.06,1.25,1.6a29.5,29.5,0,0,0-9.26.9,0,0,0,0,0,0,.07,37,37,0,0,1,9.51-.62l1.13,1.57a19.77,19.77,0,0,0-5.51.63.06.06,0,1,0,0,.11,21,21,0,0,1,5.7-.45q2.46,3.4,4.72,6.92a5.09,5.09,0,0,0-2.42.14s0,.07,0,.07a10.35,10.35,0,0,1,2.61.12c1.36,2.12,2.68,4.25,3.94,6.4C67.62,373.06,67.91,372.93,67.81,372.74Z" style="fill:#263238"></path><path d="M56,360.86a11.92,11.92,0,0,0-4.44.54,0,0,0,0,0,0,.07,32.48,32.48,0,0,1,4.4-.45C56,361,56.05,360.87,56,360.86Z" style="fill:#263238"></path><path d="M42.64,343.41a7.35,7.35,0,0,0-2,.12c-.08,0-.06.13,0,.12.67-.07,1.34,0,2-.07A.09.09,0,1,0,42.64,343.41Z" style="fill:#263238"></path><polygon points="88.28 423.52 53.85 423.52 58.76 387.56 60.01 378.34 82.12 378.34 83.37 387.56 88.28 423.52" style="fill:#455a64"></polygon><polygon points="83.37 387.56 58.76 387.56 60.01 378.34 82.12 378.34 83.37 387.56" style="fill:#263238"></polygon><rect x="56.85" y="375.14" width="28.42" height="7.81" style="fill:#455a64"></rect></g><g id="freepik--Character--inject-23"><path d="M345.06,455.81c2,.65,59.27-.1,61.43-1.51.83-.52,1.2-8.87,1.37-19V435c0-2.08.07-4.23.07-6.4,0-.3,0-.6,0-.89L405.17,398l-38.31.38,3.78,29.43.05,1.17.23,6.09,0,.62s-21.79,10.09-24,11.9S343.05,455.17,345.06,455.81Z" style="fill:#eb9481"></path><path d="M345.06,455.81c2,.65,59.27-.1,61.43-1.51.83-.52,1.2-8.87,1.37-19V435c0-2.08.07-4.23.07-6.4,0-.3,0-.6,0-.89l-37.3.1.05,1.17.23,6.09,0,.62s-21.79,10.09-24,11.9S343.05,455.17,345.06,455.81Z" style="fill:#ebebeb"></path><path d="M345.05,455.81c1,.33,16.59.29,31.8,0,3.06-.06,6.1-.13,9-.21,10.85-.3,19.81-.75,20.64-1.29s1.2-8.64,1.37-18.55c0-.14,0-.28,0-.42V435h0l-36.9.07,0,.63s-21.8,10.08-24,11.89S343.05,455.17,345.05,455.81Z" style="fill:#E32636"></path><path d="M345.68,453.58c9.65-.36,48.6-.91,58.16-.54.08,0,.08.06,0,.06-9.55.57-48.51.81-58.16.64C345.48,453.74,345.47,453.59,345.68,453.58Z" style="fill:#263238"></path><path d="M366.81,435.23c3.79-.75,8.44-.23,11.38,2.44.11.1,0,.26-.16.22a53.87,53.87,0,0,0-11.2-2.18A.24.24,0,0,1,366.81,435.23Z" style="fill:#263238"></path><path d="M364.09,436.92c3.79-.76,8.44-.23,11.38,2.44.11.1,0,.26-.16.22a53.87,53.87,0,0,0-11.2-2.18A.24.24,0,0,1,364.09,436.92Z" style="fill:#263238"></path><path d="M361.37,438.61c3.79-.76,8.44-.23,11.38,2.43.11.11,0,.27-.16.23a53.22,53.22,0,0,0-11.2-2.18A.24.24,0,0,1,361.37,438.61Z" style="fill:#263238"></path><path d="M376.85,455.8c3.06-.06,6.1-.13,9-.21,10.85-.3,19.81-.75,20.64-1.29s1.2-8.64,1.37-18.55c0-.14,0-.28,0-.42V435h0C402.77,438.55,385,450.41,376.85,455.8Z" style="fill:#263238"></path><path d="M368.41,435.2h41.23s-8.3-96.31-8-98c.42-2.16,2.85-11.91,6.09-24.64,1-4,2.11-8.26,3.25-12.69,3.08-12,6.46-25.08,9.42-36.48,4.43-17.07,7.89-30.33,7.89-30.33H393.36s-4.07,12.91-9.21,29.71c-8.36,27.3-19.54,64.88-20.64,74C361.72,351.55,368.41,435.2,368.41,435.2Z" style="fill:#455a64"></path><path d="M370.23,428.17c6.3-.13,4.49-.18,10.79-.25,3.08,0,23.34-.2,26.22.28a.06.06,0,0,1,0,.12c-2.88.48-23.14.3-26.22.27-6.3-.06-4.49-.11-10.79-.24A.09.09,0,1,1,370.23,428.17Z" style="fill:#263238"></path><path d="M393.9,331.32c1.36-6,3.38-11.8,5.14-17.65q5.35-17.84,10.78-35.65,2.71-8.91,5.44-17.81c.92-3,1.84-6,2.78-9s2-5.83,2.79-8.79c.34-1.2.52-.54.09,1-.87,3.07-1.73,6.15-2.62,9.22q-2.67,9.12-5.36,18.22-5.37,18.12-10.82,36.22l-5.46,18.14a73.78,73.78,0,0,0-2.23,8.78,40.42,40.42,0,0,0-.36,9.39c.39,6.31,1.12,12.61,1.7,18.91s1.17,12.61,1.76,18.92q1.74,18.82,3.45,37.66c.14,1.59.28,3.18.41,4.78,0,.53-.77.49-.83,0-1.35-12.42-2.4-24.87-3.56-37.3l-3.48-37.11c-.29-3.11-.62-6.22-.62-9.34A38.68,38.68,0,0,1,393.9,331.32Z" style="fill:#263238"></path><path d="M397.33,233.07c2.42,18.77,7.05,54,10.42,79.5,7.88-30.94,20.56-79.5,20.56-79.5Z" style="fill:#263238"></path><path d="M388.74,456.36c2,.66,59.27.12,61.44-1.28.83-.52,1.24-8.87,1.44-19v-.32c.05-2.08.09-4.22.1-6.4,0-.3,0-.6,0-.89.13-14.58-.92-29.71-.92-29.71l-37.43.25,1.05,29.43,0,1.16.21,6.09,0,.63s-21.83,10-24.05,11.8S386.74,455.71,388.74,456.36Z" style="fill:#eb9481"></path><path d="M388.74,456.36c2,.66,59.27.12,61.44-1.28.83-.52,1.24-8.87,1.44-19v-.32c.05-2.08.09-4.22.1-6.4,0-.3,0-.6,0-.89l-37.3,0,0,1.16.21,6.09,0,.63s-21.83,10-24.05,11.8S386.74,455.71,388.74,456.36Z" style="fill:#ebebeb"></path><path d="M388.74,456.36c2,.66,59.27.12,61.44-1.28.83-.52,1.24-8.87,1.44-19v-.32l-36.94-.07,0,.63s-21.83,10-24.05,11.8S386.74,455.71,388.74,456.36Z" style="fill:#E32636"></path><path d="M389.37,454.13c9.65-.32,48.6-.73,58.17-.32.08,0,.08.06,0,.06-9.56.53-48.51.63-58.17.42C389.17,454.29,389.17,454.14,389.37,454.13Z" style="fill:#263238"></path><path d="M410.57,435.87c3.79-.75,8.44-.21,11.37,2.47.11.1,0,.26-.16.23a52.7,52.7,0,0,0-11.19-2.22A.24.24,0,0,1,410.57,435.87Z" style="fill:#263238"></path><path d="M407.84,437.54c3.79-.74,8.44-.2,11.37,2.48.12.1,0,.26-.16.22A53.84,53.84,0,0,0,407.86,438,.24.24,0,0,1,407.84,437.54Z" style="fill:#263238"></path><path d="M405.11,439.22c3.8-.74,8.45-.2,11.38,2.48.11.1,0,.26-.16.22a53.94,53.94,0,0,0-11.2-2.22A.24.24,0,0,1,405.11,439.22Z" style="fill:#263238"></path><path d="M394.49,233.07s.81,16.72,4.63,30c.31,1.1.64,2.18,1,3.21a62.24,62.24,0,0,1,10.07,5.18s.41,13.45.81,28.46c.45,16.77.91,35.48.82,39.45-.36,14.84,1.85,96.48,1.85,96.48l41.23.16s-7.45-91.16-7.4-96.6c.08-8.74-2-47.38-3.6-75.56-1-17.36-1.79-30.74-1.79-30.74Z" style="fill:#455a64"></path><path d="M415.08,428.47c6.3-.1,4.49-.16,10.79-.19,3.09,0,23.34-.11,26.22.38.06,0,.06.12,0,.13-2.88.46-23.14.2-26.22.16-6.3-.09-4.49-.13-10.79-.29A.1.1,0,0,1,415.08,428.47Z" style="fill:#263238"></path><path d="M438.65,239c.76,23,1.56,46,2.59,69s2.42,46.14,4.35,69.15c1.08,12.86,2.1,30.95,3.49,43.77,0,.09-.13.12-.14,0-3-22.81-4.67-51-6.15-74s-2.48-46-3.26-68.95c-.44-13-.78-26-1.17-39C438.36,238.84,438.64,238.86,438.65,239Z" style="fill:#263238"></path><path d="M398.41,265.24a77.27,77.27,0,0,1,11.78,6.18.13.13,0,0,1-.12.24c-4-1.93-8-3.79-11.9-5.94A.27.27,0,0,1,398.41,265.24Z" style="fill:#263238"></path><path d="M398.18,251.06c.27,1.46.62,2.91.94,4.37s.52,2.76.88,4.11a7.07,7.07,0,0,0,1.91,3.45c.54.5,1.13.94,1.7,1.39.31.25.64.49,1,.74,0-.2-.07-.39-.11-.59-.1-.56-.19-1.11-.28-1.67-.21-1.24-.41-2.47-.6-3.71-.37-2.43-.71-4.89-1.22-7.29,0-.1.13-.14.15,0,.61,2.38,1.28,4.74,1.81,7.15.25,1.18,1.18,7,1.22,7.42s.08.85.09,1.28a4.72,4.72,0,0,1,0,1.3c0,.11-.15.09-.2,0h0a5.14,5.14,0,0,1-.37-1.27c-.11-.42-.2-.84-.28-1.26,0-.15,0-.31-.07-.47-.57-.34-1.11-.8-1.64-1.19s-1.17-.83-1.72-1.29a6.59,6.59,0,0,1-2.09-3.27,23.62,23.62,0,0,1-.68-4.19c-.19-1.65-.32-3.31-.56-5C398,251,398.16,251,398.18,251.06Z" style="fill:#263238"></path><path d="M416.77,189.33c-5.57,9.56-29.57,30.37-38.13,31-6.18.44-26.92-16.49-32.78-22.38-5.64-5.68,13.35-21.38,16.89-18.28,5,4.39,16,17.07,18.4,17.45,1.68.26,11.94-4.73,27.85-14.09C417.8,177.82,420.09,183.62,416.77,189.33Z" style="fill:#eb9481"></path><path d="M333.74,185.78c2.49,4.69,11.34,12.28,14.18,13.29s16.24-13.61,15.72-16.66-10.14-18.18-15.12-20.32S331.15,180.92,333.74,185.78Z" style="fill:#eb9481"></path><path d="M362.45,179.55a44.2,44.2,0,0,1,.49-12.8c1.12-5,3.33-12.28.67-13-5.46-1.43-11,16.75-11,16.75s-1.15,8.41,4.14,10.31A5.59,5.59,0,0,0,362.45,179.55Z" style="fill:#eb9481"></path><path d="M355.51,166.92c-1.5,2.38-3.37,1-3.37,1s4,3.7,2.73,6.53-5.05.43-5.33.27c.21.2,3.82,3.69,2.24,6.4s-5.08-.14-5.3-.33c.14.24,1.94,3.57.27,5.36-2.86,3.07-7.71-5.29-11-6,0,0-1.9,5.49-2,5.64,0,0-4.78-7.86-3.53-12.29a2.92,2.92,0,0,1,3-2.18s-1.82-2.37-.64-4.55c.6-1.11,2.93-1.14,2.93-1.14a3.66,3.66,0,0,1-.21-3.82c.92-1.5,3.11-1.29,3.11-1.29s-10.75-8.6-8.83-11.19c3.31-4.45,23.18,14.74,25.6,14.39C356.33,163.53,356.17,165.89,355.51,166.92Z" style="fill:#eb9481"></path><path d="M338.71,160.49s0-.09,0-.08A26.2,26.2,0,0,1,352.32,168c.11.13.23.9.09.77C349,165.48,343.76,162.45,338.71,160.49Z" style="fill:#263238"></path><path d="M335.41,165.56c-.06,0,0-.11,0-.09a24.44,24.44,0,0,1,14.3,9.22c.12.16.06.43-.09.25C347.12,171.87,340,167.31,335.41,165.56Z" style="fill:#263238"></path><path d="M346.6,181.23c-3.48-4.55-8.06-7.52-13.21-9.89-.07,0,0-.12,0-.11,2.84.47,6,2.33,8.27,4a15.11,15.11,0,0,1,5.06,5.9C346.81,181.2,346.68,181.33,346.6,181.23Z" style="fill:#263238"></path><path d="M352.23,167.93c.14.15-.49.19-.36.35,1.4,1.69,3.77,4.84,2.65,6.3-.9,1.16-3.09.76-3.87.28l-2-1.22,1.42,1.82a9.66,9.66,0,0,1,1.49,2.68,3.43,3.43,0,0,1-.06,2.76,1.93,1.93,0,0,1-2.2,1,5.7,5.7,0,0,1-2.54-1.44l-2-1.83,1.31,2.38a8.74,8.74,0,0,1,.83,2.11,3.69,3.69,0,0,1,0,2.11,1.75,1.75,0,0,1-1.43,1.14,3.85,3.85,0,0,1-2.05-.66,31.89,31.89,0,0,1-3.74-2.91c-.61-.52-1.22-1-1.86-1.53a5.76,5.76,0,0,0-2.1-1.15,6.16,6.16,0,0,1,2,1.32c.59.54,1.16,1.1,1.73,1.66a26.13,26.13,0,0,0,3.67,3.17,4.53,4.53,0,0,0,2.42.87,2.48,2.48,0,0,0,2.18-1.61,4.4,4.4,0,0,0,.08-2.61,9.6,9.6,0,0,0-.88-2.36l-.72.55a6.73,6.73,0,0,0,3,1.74,2.74,2.74,0,0,0,1.88-.21,3.08,3.08,0,0,0,1.33-1.32,4.25,4.25,0,0,0,.07-3.49,9.83,9.83,0,0,0-1.68-2.91l-.54.6c1,.58,3.41,1.3,5-.33C357,172.77,353,168.64,352.23,167.93Z" style="fill:#263238"></path><path d="M363.22,179.85l-15.65,28.24s23.41,13.8,31,13,29.61-18.64,38.23-30.34c5.24-7.12,1.55-13.15-8.68-7.81-10.51,5.48-25.25,13-26.3,13.21S363.22,179.85,363.22,179.85Z" style="fill:#E32636"></path><path d="M361.65,198.1c1-2.15,5.06-10.75,5.9-13,0,0,0-.07-.06,0-1.21,2-5.45,10.33-6.48,12.48a130.21,130.21,0,0,0-5.78,13c0,.08.09.16.14.08C357.74,206.63,359.63,202.33,361.65,198.1Z" style="fill:#263238"></path><path d="M416.77,190.8c-7,9.48-22.79,23-32.55,28.22l29.94-38h0C419.56,180.53,420.79,185.34,416.77,190.8Z" style="opacity:0.1"></path><path d="M443.72,253.17c-.15.15-54.15-5.67-54.66-6.33-.71-.92,14.69-55.89,19.49-64.91,2-3.84,11.81-4.4,15.67-.76,9.67,9.09,16.4,38.49,17.81,47.3C444.38,243,444.26,252.64,443.72,253.17Z" style="fill:#fff"></path><path d="M409.6,180.29l-13.24,76L386.16,251s16.91-55.93,18-59.81S407.55,181.74,409.6,180.29Z" style="fill:#E32636"></path><path d="M421,178.72c-.67-.28-1.26,30-1.33,35s-.57,44.34-.57,44.34l26.49-3.44s-1.91-35.47-11.39-56.86C428.89,185.65,426,180.79,421,178.72Z" style="fill:#E32636"></path><path d="M408.18,182.91s.05,0,0,0c-.36,2.73-1,9.07,3.32,9a9.24,9.24,0,0,0,4.79-2,24.09,24.09,0,0,0,3.9-3.45A35.65,35.65,0,0,0,424,182c0-.07.15,0,.1.08-1.14,1.6-2.1,3.29-3.39,4.78a21.33,21.33,0,0,1-4.22,3.83,9.15,9.15,0,0,1-5.08,1.9A3.47,3.47,0,0,1,408,189.7,15.42,15.42,0,0,1,408.18,182.91Z" style="fill:#263238"></path><path d="M421.22,190.35C422.68,197.18,434,249.51,438,250c11.7,1.55,24.27.43,24.34-9,.11-14.8-20.23-43.41-33.17-56.74C420.63,175.54,419.78,183.61,421.22,190.35Z" style="fill:#E32636"></path><path d="M424.63,204.18c-.76-2.88-1.55-5.76-2.39-8.62,0-.08-.13,0-.12,0,.78,3.85,1.65,7.68,2.56,11.5a42.13,42.13,0,0,1-1.93-5,.08.08,0,0,0-.16,0,24,24,0,0,0,2.29,5.79l.78,3.2c1.26,5.15,2.47,10.32,3.87,15.44.79,2.87,1.54,5.76,2.36,8.63,0,.09.17.05.15,0C429.85,224.77,427.33,214.44,424.63,204.18Z" style="fill:#263238"></path><rect x="409.53" y="202.89" width="48.9" height="37.56" transform="translate(98.66 575.28) rotate(-73.58)" style="fill:#455a64"></rect><rect x="432.09" y="195.75" width="17.8" height="5.4" transform="translate(74.45 -117) rotate(16.49)" style="fill:#a6a6a6"></rect><polygon points="446.42 197.24 444.31 196.62 445.02 194.23 439.91 192.72 439.2 195.1 437.1 194.48 438.39 190.14 447.73 192.9 446.42 197.24" style="fill:#a6a6a6"></polygon><path d="M416.2,210.82a3.88,3.88,0,0,0-.67,4.38,5.74,5.74,0,0,0-3.3,2.1c-1.36,1.94,1.08,4.93,1.08,4.93a7.06,7.06,0,0,0-3.13,2.77c-1.12,2,.92,5.35.92,5.35a6.24,6.24,0,0,0-1.22,4.17c.44,4,5.95,6.62,9.43,8.34s15,3.31,17.13,3.84l11.2-22.26s-13.43-12.13-17.81-13.57C426.14,209.66,418.36,208.7,416.2,210.82Z" style="fill:#eb9481"></path><path d="M446.05,223c4,3,16.05,14.49,13.35,20.49s-12.24,5.54-25.53,2.69Z" style="fill:#eb9481"></path><path d="M446.05,223c4,3,16.66,14.2,13.62,21.89-2.42,6.12-13.63,7-26.91,4.18Z" style="fill:#E32636"></path><path d="M439.57,249.21c4-9.9,9.68-19.69,10.55-21.47a.07.07,0,1,1,.13.07c-.95,1.7-6.24,13.61-10.54,21.49C439.66,249.39,439.53,249.31,439.57,249.21Z" style="fill:#263238"></path><path d="M445.43,250.53a95.72,95.72,0,0,1-12.53-1.41,31,31,0,0,1,1.35-2.94c.06-.09-.1-.17-.15-.06a27.75,27.75,0,0,1-1.73,3.09.24.24,0,0,0,.15.34,43.05,43.05,0,0,0,12.88,1.22C445.54,250.75,445.57,250.53,445.43,250.53Z" style="fill:#263238"></path><path d="M446.58,223.22a38.36,38.36,0,0,1,4,3.29l.94.94.4.25c.57.36,1.13.74,1.66,1.15a30.06,30.06,0,0,1,2.91,2.62c.06.06,0,.16-.11.1a25.11,25.11,0,0,0-3.09-2.44l-.43-.28c.52.57,1,1.14,1.51,1.74a48.4,48.4,0,0,1,3.54,5c.05.08-.08.15-.13.07-2-3.07-9.59-10.84-11.43-12.19C445.2,222.63,445.87,222.67,446.58,223.22Z" style="fill:#263238"></path><path d="M415.87,214.92c4.23.35,8.13,1.92,12.11,3.27.09,0,0,.17,0,.14-3.95-1.39-8.12-2-12.11-3.21A.1.1,0,0,1,415.87,214.92Z" style="fill:#263238"></path><path d="M413.53,222a11.24,11.24,0,0,1,2.76.88c.95.38,1.9.77,2.84,1.18q2.83,1.23,5.59,2.6c.08,0,0,.18-.05.14-1.88-.81-3.77-1.6-5.68-2.33l-2.88-1.08a13.59,13.59,0,0,1-2.67-1.12A.15.15,0,0,1,413.53,222Z" style="fill:#263238"></path><path d="M411.18,230.38a7.47,7.47,0,0,1,2.44.93l2.56,1.16c1.71.76,3.42,1.52,5.16,2.23.08,0,0,.17,0,.13-1.77-.7-3.54-1.38-5.3-2.1l-2.59-1.08a7.28,7.28,0,0,1-2.26-1.18A.06.06,0,0,1,411.18,230.38Z" style="fill:#263238"></path><path d="M411.51,189c3.07.51,8.6-4.88,10.41-8.76a62.79,62.79,0,0,0-1-6.24c-.32-2-.63-4.23-.76-6.29l-12.7,4a32.8,32.8,0,0,1,1.76,7.82,4,4,0,0,1,0,.85s0,.09,0,.15C409,182.1,408.54,188.46,411.51,189Z" style="fill:#eb9481"></path><path d="M419.71,167.82c0,2.29-.65,11.86-9.2,12.64a8.55,8.55,0,0,1-1.33,0c0-.06,0-.11,0-.15a4,4,0,0,0,0-.85,32.8,32.8,0,0,0-1.76-7.82Z" style="fill:#263238"></path><path d="M422.56,154.67c1.06,4.68-2.34,17.72-5.81,20.42-5,3.92-12.79,3.76-16-2.18-3.11-5.76,1.62-22.67,5.45-25.08C411.85,144.29,421,147.76,422.56,154.67Z" style="fill:#eb9481"></path><path d="M410.92,162.34s.06.06.05.09c-.25.87-.39,1.91.33,2.41,0,0,0,.06,0,0C410.34,164.5,410.54,163.12,410.92,162.34Z" style="fill:#263238"></path><path d="M411.94,161.62c1.44.25.83,3.12-.51,2.88S410.73,161.41,411.94,161.62Z" style="fill:#263238"></path><path d="M406,161.07s-.07,0-.08.06c-.16.9-.5,1.89-1.36,2a0,0,0,0,0,0,0C405.54,163.27,406,161.94,406,161.07Z" style="fill:#263238"></path><path d="M405.39,160c-1.4-.41-2.13,2.43-.83,2.81S406.57,160.32,405.39,160Z" style="fill:#263238"></path><path d="M413.35,160.55a9.63,9.63,0,0,1-1-.63,2,2,0,0,1-.93-.84.63.63,0,0,1,.26-.71,1.51,1.51,0,0,1,1.54.17,2.19,2.19,0,0,1,1.07,1.23A.66.66,0,0,1,413.35,160.55Z" style="fill:#263238"></path><path d="M404.59,158.3a9.65,9.65,0,0,0,1.2-.06A1.93,1.93,0,0,0,407,158a.64.64,0,0,0,.12-.75,1.53,1.53,0,0,0-1.43-.6,2.28,2.28,0,0,0-1.53.55A.67.67,0,0,0,404.59,158.3Z" style="fill:#263238"></path><path d="M410,170.43c-.26.16-.53.4-.86.36a2.41,2.41,0,0,1-.9-.43s-.06,0-.05,0a1.21,1.21,0,0,0,1,.72,1,1,0,0,0,.87-.63C410.11,170.44,410.05,170.41,410,170.43Z" style="fill:#263238"></path><path d="M409.65,167.58a3.12,3.12,0,0,1-2.31.91,3.73,3.73,0,0,1-1.09-.19l-.21-.06-.18-.08a.22.22,0,0,1-.14-.23h0l0-.09h0l0-.08c.13-.69.42-1.71.42-1.71-.28.07-1.68.37-1.58,0a46.83,46.83,0,0,1,3.13-8.9c0-.09.19,0,.16.06-.67,2.84-1.83,5.53-2.54,8.37a5.42,5.42,0,0,1,1.51-.13c.1,0-.59,2-.62,2.28v0a4.29,4.29,0,0,0,3.33-.3C409.66,167.44,409.72,167.52,409.65,167.58Z" style="fill:#263238"></path><path d="M406.72,168a3.63,3.63,0,0,0,1.2,1.42,1.6,1.6,0,0,0,1,.27c.75,0,.9-.68.89-1.26a4.3,4.3,0,0,0-.13-.92A4.74,4.74,0,0,1,406.72,168Z" style="fill:#263238"></path><path d="M407.92,169.46a1.6,1.6,0,0,0,1,.27c.75,0,.9-.68.89-1.26A1.7,1.7,0,0,0,407.92,169.46Z" style="fill:#ff98b9"></path><path d="M418.21,161.23c-.81-2.59.78-6.86-.47-8-2.72-2.57-8.53,2.06-12.43,2s-5-2.55-4.22-5.6,3.42-5.05,7.69-5.57a16,16,0,0,1,10.5,2.79s-.91-1.56-.54-2,2.18,1.06,2.73,1.7a5.76,5.76,0,0,1,.88,1.85,5.93,5.93,0,0,1,1.73-.13,3.6,3.6,0,0,1,2.22,1.06c.06.23-1.32.37-2.29.39,0,0,1.74,2.44,1.65,4.48s-3.53,11.68-4.3,11.77C420.37,166,418.53,162.28,418.21,161.23Z" style="fill:#263238"></path><path d="M423.65,149.38s-.08,0,0,.06a6.45,6.45,0,0,1,2,2.95,8.13,8.13,0,0,1-.07,4.21,39.18,39.18,0,0,1-3.25,7.53c0,.07.08.13.12.06a28.44,28.44,0,0,0,3.51-8.1C426.39,153.65,425.9,150.81,423.65,149.38Z" style="fill:#263238"></path><path d="M417.91,152.2a9.27,9.27,0,0,0-3.44.13,13.63,13.63,0,0,0-3,1.38,13.12,13.12,0,0,1-7,1.74s0,0,0,.05a11.53,11.53,0,0,0,6.54-1.23,28.6,28.6,0,0,1,3.09-1.53,12,12,0,0,1,3.82-.34A.1.1,0,0,0,417.91,152.2Z" style="fill:#263238"></path><path d="M417,145.66a18.2,18.2,0,0,0-4.81-1.73,14.37,14.37,0,0,0-4.89-.3,7.09,7.09,0,0,0-6.18,5,6.13,6.13,0,0,0,.46,4.39.08.08,0,0,0,.14-.07,6.34,6.34,0,0,1,1.64-7.4c2.35-1.93,5.58-2,8.44-1.47a26.31,26.31,0,0,1,5.19,1.64S417,145.67,417,145.66Z" style="fill:#263238"></path><path d="M418.94,165.23s3.38-4,5.22-2.73-1,7.21-3.35,7.85a2.33,2.33,0,0,1-3-1.54Z" style="fill:#eb9481"></path><path d="M423.3,164.19a0,0,0,0,1,0,.06,5.89,5.89,0,0,0-3.37,3.37,1.29,1.29,0,0,1,1.95-.17s0,.1-.05.08a1.45,1.45,0,0,0-1.62.35,7.21,7.21,0,0,0-.86,1.19c-.09.14-.34,0-.27-.12v0C419.26,166.88,421.1,164.19,423.3,164.19Z" style="fill:#263238"></path><path d="M409.13,180.25l3.15,7.59,9.37-9.75,2.72,3.06s-9.1,15.44-9.16,14.75L412,189.36,407.51,194l.23-11.48Z" style="fill:#fff"></path><path d="M407.3,188.3c.1-1.9.16-3.81.35-5.69,0-.07.11-.1.12,0,.4,1.82,0,9.06,0,10.8l0,0c.19-.2,4.16-4.07,4.2-4,.69,1,3.06,5.79,3.22,6.23,1.44-2.45,7-11.37,8.66-13.69a.07.07,0,0,1,.12.06c-1.27,2.59-8.57,14.59-8.68,14.56a74.49,74.49,0,0,1-3.37-6.91c-.67.84-4.67,5.21-4.69,4.92A61.68,61.68,0,0,1,407.3,188.3Z" style="fill:#263238"></path></g></svg>