<svg width="759" height="448" viewBox="0 0 759 448" fill="none" xmlns="http://www.w3.org/2000/svg">
<path d="M590.45 1H182.75C175.239 1 169.15 7.08893 169.15 14.6V261.7C169.15 269.211 175.239 275.3 182.75 275.3H590.45C597.961 275.3 604.05 269.211 604.05 261.7V14.6C604.05 7.08893 597.961 1 590.45 1Z" stroke="#DDDDDD" stroke-width="1.81" stroke-linecap="round" stroke-linejoin="round"/>
<path d="M577.56 13.79H195.65C188.139 13.79 182.05 19.8789 182.05 27.39V248.89C182.05 256.401 188.139 262.49 195.65 262.49H577.56C585.071 262.49 591.16 256.401 591.16 248.89V27.39C591.16 19.8789 585.071 13.79 577.56 13.79Z" stroke="#DDDDDD" stroke-width="1.81" stroke-linecap="round" stroke-linejoin="round"/>
<path d="M182.56 194.38C168.19 196.11 166.42 186.68 161.19 173.27C155.96 159.86 156.88 147.27 153.33 126.65C149.18 102.65 178.33 102.11 184.33 135.76C184.58 137.12 184.85 138.7 185.14 140.43C185.99 145.3 187.06 151.43 188.6 157.51C188.99 159.04 189.41 160.57 189.85 162.08C192.75 171.77 196.96 192.64 182.56 194.38Z" fill="#B25E47"/>
<path d="M188.64 157.51C169.3 163.51 166.43 147.69 166.64 141.22L185.16 140.43C186.03 145.27 187.1 151.4 188.64 157.51Z" fill="#914839"/>
<path d="M258.19 257.57C257.439 258.286 256.645 258.954 255.81 259.57C255.18 260.07 254.42 260.64 253.54 261.23L252.79 261.74L251.93 262.29C250.72 263.05 249.35 263.85 247.81 264.63C247.09 265 246.33 265.38 245.53 265.73C245.12 265.92 244.7 266.11 244.26 266.29L242.95 266.83C242.54 266.99 242.13 267.15 241.7 267.3C241.27 267.45 240.7 267.68 240.12 267.86C239.54 268.04 239.12 268.19 238.62 268.34C238.12 268.49 237.62 268.65 237.07 268.79L235.67 269.16L235.29 269.25L233.85 269.57C232.7 269.83 231.52 270.04 230.29 270.22C229.79 270.31 229.29 270.38 228.76 270.44C228.57 270.44 228.38 270.49 228.18 270.5C227.65 270.57 227.12 270.62 226.58 270.67V270.77C226.86 273.53 229.9 325.77 230.68 339.5L230.75 340.72C230.75 341 230.75 341.25 230.75 341.47C192.33 340.47 154.05 340.1 117.17 340.2C116.41 326.46 115.04 301.07 113.71 275.2C111.86 238.95 110.1 201.81 110.3 194.59V194.48C110.72 180.58 108.77 170.17 120.64 165.58C124.78 163.98 130.64 163.08 138.8 163H140.37H142.1H143.92C144.54 163 145.12 163 145.68 162.94H146.91L148.08 162.88H149.08L150.7 162.79L151.84 162.71C152.44 162.71 152.98 162.63 153.48 162.59H153.79L154.36 162.54L155.17 162.45H155.45C156 162.38 156.45 162.31 156.78 162.25C157.11 162.19 157.26 162.16 157.44 162.12C157.634 162.084 157.822 162.023 158 161.94C160.62 169.18 167.92 182.42 180.16 180.75C192.4 179.08 191.37 165.44 188.94 159.47L189.17 159.67L189.52 159.95L190.29 160.51C190.4 160.59 190.52 160.68 190.65 160.76L191.06 161.03L191.46 161.28L192.01 161.61C192.48 161.87 193.01 162.12 193.5 162.34L194.02 162.55C194.37 162.67 194.72 162.76 195.02 162.84C195.392 162.915 195.771 162.952 196.15 162.95C196.27 162.961 196.39 162.961 196.51 162.95C196.64 162.95 196.76 162.95 196.88 162.89C198.79 162.41 204.16 161.47 211.51 164.35C216.2 166.2 221.7 169.61 227.63 175.71C231.47 179.917 234.72 184.627 237.29 189.71C247.86 209.16 255.71 238.78 258.19 257.57Z" fill="#A7CAF0"/>
<path d="M237.36 189.54C230.932 188.625 224.381 189.862 218.73 193.06C214.29 195.756 210.796 199.764 208.73 204.53C198.41 227.29 171.37 235.84 153.3 210.65C150.789 207.082 147.88 203.811 144.63 200.9C134.92 192.38 123.63 190.03 110.23 194.69V194.58C110.65 180.68 108.7 170.27 120.57 165.68C124.71 164.08 130.57 163.18 138.73 163.1C156.03 162.92 157.96 161.81 157.96 161.81C160.58 169.05 167.88 182.29 180.12 180.62C192.36 178.95 191.33 165.31 188.9 159.34C189.17 159.57 193.9 163.5 196.9 162.75C198.81 162.27 204.18 161.33 211.53 164.21C216.22 166.06 221.72 169.47 227.65 175.57C231.505 179.765 234.772 184.465 237.36 189.54Z" fill="#A7CAF0"/>
<path d="M254.9 342.27C246.84 342.01 238.784 341.777 230.73 341.57V340.82L230.66 339.6L226.56 270.87V270.77L254.9 251.47C255.28 253.99 255.6 256.73 255.9 259.63C258.46 289.27 255.34 335.87 254.9 342.27Z" fill="#B25E47"/>
<path d="M258.19 257.57C258.19 257.57 246.88 268.98 226.52 270.75C225.4 237.92 222.25 211.93 218.75 193.06C216.34 180.01 213.75 170.35 211.6 164.21C216.29 166.06 221.79 169.47 227.72 175.57C231.56 179.777 234.81 184.487 237.38 189.57C247.86 209.16 255.71 238.78 258.19 257.57Z" fill="#DE1536"/>
<path d="M237.36 189.54C230.932 188.625 224.381 189.862 218.73 193.06C216.32 180.01 213.73 170.35 211.58 164.21C216.27 166.06 221.77 169.47 227.7 175.57C231.538 179.768 234.787 184.467 237.36 189.54Z" fill="#DE1536"/>
<path d="M226.5 270.75C225.38 237.92 222.23 211.93 218.73 193.06" stroke="#CB1835" stroke-width="0.68" stroke-linecap="round" stroke-linejoin="round"/>
<path d="M157.38 158.21C151.38 160.57 151.38 163.21 151.38 166.08C151.38 168.95 156.76 184.61 167.28 195.73C169.33 197.9 172.38 184.51 175.39 183.73C178.4 182.95 181.1 184.33 182.5 184.13C183.9 183.93 187.61 180.25 190.02 181.92C192.43 183.59 197.53 191.92 198.53 192.14C199.53 192.36 199.63 172.41 197.33 165.4C196.727 163.419 195.596 161.64 194.058 160.253C192.52 158.867 190.633 157.925 188.6 157.53C188.6 157.53 190.26 172.01 185.41 176.31C175.33 185.27 164.96 173.98 157.38 158.21Z" fill="white"/>
<path d="M154.53 118.54C151.02 117.24 145.64 120.54 146.37 126.01C147.1 131.48 155.19 133.27 159.19 130.1C157.187 126.444 155.623 122.563 154.53 118.54Z" fill="#B25E47"/>
<path d="M149.13 126.37C148.83 124.02 151.67 120.31 156.13 123.83" stroke="#914839" stroke-width="0.68" stroke-linecap="round" stroke-linejoin="round"/>
<path d="M154.33 127.91C149.68 127.79 151.05 122.78 155.25 123.22" stroke="#914839" stroke-width="0.68" stroke-linecap="round" stroke-linejoin="round"/>
<path d="M190.88 124.14L188.36 124.87L163.67 132.01C163.67 132.01 163.01 131.37 162.01 130.26C158.749 126.67 156.152 122.529 154.34 118.03C153.797 116.577 153.418 115.068 153.21 113.53C151.99 103.96 161.94 86.03 178.5 94.31C183.85 99.41 186.89 108.47 187.67 111.13L187.93 112.03C188.88 115.58 190.88 124.14 190.88 124.14Z" fill="#B25E47"/>
<path d="M173.19 120.75C173.19 123.304 172.176 125.753 170.37 127.559C168.564 129.365 166.114 130.38 163.56 130.38C163.028 130.381 162.496 130.341 161.97 130.26C158.709 126.67 156.112 122.529 154.3 118.03C154.953 115.804 156.387 113.889 158.339 112.634C160.29 111.38 162.628 110.872 164.924 111.203C167.22 111.533 169.32 112.681 170.838 114.434C172.356 116.188 173.192 118.43 173.19 120.75Z" fill="#914839"/>
<path d="M190.88 124.14L188.36 124.87C187.315 124.172 186.451 123.236 185.84 122.138C185.229 121.039 184.888 119.811 184.846 118.555C184.804 117.299 185.062 116.051 185.598 114.915C186.134 113.778 186.934 112.786 187.93 112.02C188.88 115.58 190.88 124.14 190.88 124.14Z" fill="#914839"/>
<path d="M172.79 111.1C172.788 111.354 172.862 111.603 173.002 111.815C173.142 112.027 173.341 112.192 173.576 112.291C173.81 112.389 174.068 112.415 174.317 112.366C174.567 112.317 174.796 112.195 174.975 112.015C175.155 111.835 175.277 111.606 175.326 111.357C175.375 111.108 175.349 110.85 175.251 110.616C175.153 110.381 174.987 110.181 174.775 110.042C174.563 109.902 174.314 109.828 174.06 109.83C173.893 109.83 173.728 109.863 173.574 109.927C173.42 109.99 173.28 110.084 173.162 110.202C173.044 110.32 172.951 110.46 172.887 110.614C172.823 110.768 172.79 110.933 172.79 111.1Z" fill="#683F1D"/>
<path d="M182.01 109.83C182.01 110.084 182.086 110.331 182.227 110.542C182.368 110.753 182.568 110.917 182.803 111.013C183.037 111.11 183.295 111.135 183.544 111.085C183.792 111.034 184.02 110.911 184.199 110.731C184.377 110.551 184.499 110.322 184.547 110.073C184.595 109.825 184.568 109.567 184.47 109.333C184.371 109.099 184.206 108.9 183.994 108.761C183.782 108.621 183.534 108.548 183.28 108.55C183.113 108.55 182.947 108.583 182.792 108.648C182.637 108.712 182.497 108.806 182.379 108.925C182.261 109.044 182.167 109.186 182.104 109.341C182.041 109.496 182.009 109.662 182.01 109.83Z" fill="#683F1D"/>
<path d="M192.97 139.6C187.58 153.42 174.16 149.41 168.17 145.53C162.18 141.65 159.17 131.69 154.93 124.88C149.38 116.01 149.56 107.3 152.51 100.88C154.357 96.5351 157.832 93.0857 162.19 91.27C171.57 87.84 178.51 94.27 178.51 94.27C178.32 100.27 166.85 98.67 164.68 98.02C159.33 96.45 157.16 102.17 156.53 106.69C155.79 111.94 156.59 117.4 159.46 121.41C162.33 125.42 164.46 126.41 166.02 124.41C167.58 122.41 170.55 120.14 178.13 118.92C185.71 117.7 189.19 121.32 189.19 121.32C189.19 119.96 187.75 111.66 187.67 111.15C190.42 116.013 192.413 121.267 193.58 126.73C194.41 131.02 194.52 135.59 192.97 139.6Z" fill="#FFEACC"/>
<path d="M192.97 139.6C187.58 153.42 174.16 149.41 168.17 145.53C162.18 141.65 159.17 131.69 154.93 124.88C149.38 116.01 149.56 107.3 152.51 100.88C152.31 117.97 164.2 136.88 171.51 140.36C178.37 143.64 190.73 142.55 193.56 126.74C194.41 131.02 194.52 135.59 192.97 139.6Z" fill="#EDD6B7"/>
<path d="M174.06 122.91C177.131 123.096 180.21 123.096 183.28 122.91C183.28 122.91 182.05 126.98 178.28 126.63C177.26 126.576 176.289 126.18 175.523 125.504C174.757 124.829 174.241 123.915 174.06 122.91Z" fill="white" stroke="#914839" stroke-width="0.68" stroke-linecap="round" stroke-linejoin="round"/>
<path d="M172.78 101.82C173.4 104.27 167.23 108.6 165.69 106.82C164.15 105.04 171.84 98.14 172.78 101.82Z" fill="#FFEACC"/>
<path d="M178.32 100.75C178.13 102.51 185.55 103.99 185.65 102.66C185.75 101.33 178.67 97.57 178.32 100.75Z" fill="#FFEACC"/>
<path d="M177.07 103.65C176.35 106.18 175.89 109.47 178.32 110.65C180.75 111.83 184.04 111.37 184.37 116.19" stroke="#914839" stroke-width="0.68" stroke-linecap="round" stroke-linejoin="round"/>
<path d="M88.1902 268.58C86.8002 284.39 86.7602 317.48 103.19 325.88C130.26 339.71 135.99 303.95 134.8 268.58H88.1902Z" fill="#B25E47"/>
<path d="M144.9 213.27C144.39 234.18 135.37 274.38 135.37 274.38C126.98 275.07 119.81 275.38 113.68 275.38C87.8602 275.38 80.6802 270.3 80.6802 270.3C80.6802 270.3 85.9102 230 93.3002 203.58C94.0402 200.91 94.8102 198.38 95.5902 196.05C102.4 175.86 111 167.48 120.59 165.76C123.116 165.324 125.695 165.294 128.23 165.67C138.85 167.11 143.52 183.67 144.65 200.98C144.93 205.03 145 209.21 144.9 213.27Z" fill="#DE1536"/>
<path d="M144.67 200.9C134.96 192.38 123.67 190.03 110.27 194.69C104.245 196.875 98.5297 199.837 93.2701 203.5C94.0101 200.83 94.7801 198.3 95.5601 195.97C102.37 175.78 110.97 167.4 120.56 165.68C123.086 165.244 125.665 165.214 128.2 165.59C138.87 167.03 143.54 183.57 144.67 200.9Z" fill="#DE1536"/>
<path d="M144.9 213.27C144.39 234.18 135.37 274.38 135.37 274.38" stroke="#CB1835" stroke-width="0.68" stroke-linecap="round" stroke-linejoin="round"/>
<path d="M240.93 234.27C240.93 234.27 243.93 236.47 240.74 242.49C240.74 242.49 244.07 245.56 239.61 250.71C240.217 251.899 240.38 253.266 240.068 254.564C239.756 255.862 238.991 257.006 237.91 257.79C233.405 261.732 228.619 265.341 223.59 268.59C221.25 270.03 218.03 272.14 212.95 275.74C210.95 277.16 208.63 278.82 205.95 280.74C199.95 285.11 192.13 290.92 181.83 298.74C140.08 330.4 115.15 334.74 100.65 324.31C89.1301 316.03 103.65 278.69 148.12 263.75C171.01 256.05 185.06 252.02 193.66 249.6C197.15 248.6 199.75 247.9 201.66 247.32C204.2 246.54 205.57 246 206.32 245.37C209 243.07 210.24 240.37 211.54 237.13C212.84 233.89 215.9 221.75 216.66 218.43C217.42 215.11 223.17 213.19 222.21 231.96C222.21 231.96 238.66 226.6 241.64 225.83C244.62 225.06 245.8 231.59 240.93 234.27Z" fill="#B25E47"/>
<path d="M212.95 275.74C210.95 277.16 208.63 278.82 205.95 280.74C202.19 276.27 194.19 265 193.68 249.61C197.17 248.61 199.77 247.91 201.68 247.33C202.19 255.1 206.75 268.74 212.95 275.74Z" fill="#683F1D"/>
<path d="M200.48 270.75C204.661 270.75 208.05 267.361 208.05 263.18C208.05 258.999 204.661 255.61 200.48 255.61C196.299 255.61 192.91 258.999 192.91 263.18C192.91 267.361 196.299 270.75 200.48 270.75Z" fill="white" stroke="#683F1D" stroke-width="0.9" stroke-linecap="round" stroke-linejoin="round"/>
<path d="M211.58 237.14C212.87 233.89 215.94 221.76 216.7 218.44C217.46 215.12 223.21 213.2 222.25 231.97C222.25 231.97 238.7 226.61 241.68 225.84C244.66 225.07 245.8 231.59 240.93 234.27C240.93 234.27 243.93 236.47 240.74 242.49C240.74 242.49 244.07 245.56 239.61 250.71C240.217 251.899 240.38 253.266 240.068 254.564C239.756 255.862 238.991 257.006 237.91 257.79" stroke="#914839" stroke-width="0.68" stroke-linecap="round" stroke-linejoin="round"/>
<path d="M240.93 234.27C237.93 235.65 231.83 238.16 231.83 238.16" stroke="#914839" stroke-width="0.68" stroke-linecap="round" stroke-linejoin="round"/>
<path d="M240.74 242.49C238.92 243.68 234.67 245.81 234.67 245.81" stroke="#914839" stroke-width="0.68" stroke-linecap="round" stroke-linejoin="round"/>
<path d="M239.61 250.71C238.739 251.215 237.83 251.649 236.89 252.01" stroke="#914839" stroke-width="0.68" stroke-linecap="round" stroke-linejoin="round"/>
<path d="M222.25 231.97C219.46 232.79 217.25 233.62 217.25 233.62" stroke="#914839" stroke-width="0.68" stroke-linecap="round" stroke-linejoin="round"/>
<path d="M418.25 196.08C418.135 198.15 417.912 200.213 417.58 202.26C414.99 219.11 405.68 243.32 395.35 258.11C393.282 261.158 390.895 263.977 388.23 266.52C380.11 273.99 367.18 275.4 358.15 270.17C355.424 268.599 353.101 266.414 351.366 263.79C349.63 261.166 348.529 258.173 348.15 255.05C347.757 252.343 347.726 249.595 348.06 246.88C349.79 231.57 360.22 205.33 372.81 186.4C374.24 184.22 375.72 182.13 377.21 180.18C384.32 170.86 391.85 164.36 398.73 163.66C400.152 163.493 401.592 163.605 402.97 163.99C414.37 167.27 419.28 176.19 418.25 196.08Z" fill="#DE1536"/>
<path d="M397.39 205.27C393.935 217.155 392.548 229.545 393.29 241.9C393.688 247.353 394.376 252.78 395.35 258.16C393.282 261.208 390.895 264.027 388.23 266.57C380.11 274.04 367.18 275.45 358.15 270.22C355.424 268.649 353.101 266.464 351.366 263.84C349.63 261.216 348.529 258.223 348.15 255.1C356.15 263.68 364.55 265.53 371.15 263.36C380.73 260.28 386.74 248.89 383.05 237.24C376.56 216.76 391.2 205.05 398.19 201.64C398.01 202.78 397.73 203.99 397.39 205.27Z" fill="#CB1835"/>
<path d="M418.25 196.08C418.135 198.15 417.912 200.213 417.58 202.26C416.383 200.484 415.396 198.574 414.64 196.57C411.1 187.12 404.72 181.8 397.64 179.49C390.95 177.414 383.755 177.658 377.22 180.18C384.33 170.86 391.86 164.36 398.74 163.66C400.162 163.493 401.602 163.605 402.98 163.99C414.37 167.27 419.28 176.19 418.25 196.08Z" fill="#DE1536"/>
<path d="M498.13 362.77C471.45 358.26 444.82 354.65 419.32 352.22C411.8 351.513 404.203 350.847 396.53 350.22C397.97 332.85 401.21 304.34 407.17 297.41C407.486 296.971 407.892 296.606 408.361 296.338C408.831 296.071 409.352 295.908 409.89 295.86C413.27 295.8 421.73 295.52 431.79 295.15C454.12 294.31 484.33 293.06 484.33 293.06C484.76 294.74 485.19 296.41 485.61 298.06C485.61 298.13 485.61 298.21 485.68 298.29C490.969 319.548 495.125 341.071 498.13 362.77Z" fill="#83ADDF"/>
<path d="M473.62 301.65C476.75 308.65 485.12 316.86 487.95 318.73" stroke="white" stroke-width="0.9" stroke-miterlimit="10"/>
<path d="M445.41 179.84C432.53 181.41 429.75 171.09 429.67 156.34C429.67 152.87 429.79 149.15 429.98 145.27C430.084 142.994 430.327 140.726 430.71 138.48C435.1 113.35 455.9 116.39 456.97 131.2C457.38 136.82 461.34 177.9 445.41 179.84Z" fill="#B25E47"/>
<path d="M445.11 140.85C444.42 150.77 437.29 155.85 429.68 156.34C429.68 152.87 429.8 149.15 429.99 145.27C430.094 142.994 430.338 140.726 430.72 138.48C434.91 136.69 445.65 132.85 445.11 140.85Z" fill="#914839"/>
<path d="M495 238.57C494.32 240.837 493.782 243.145 493.39 245.48C493.28 246.12 493.18 246.76 493.08 247.39C489.13 272 488.64 294.83 488.37 297.2C488.1 299.57 466.06 298.75 449.66 297.95C443.27 297.63 435.01 297.72 427.22 297.78C415.02 297.87 403.97 297.9 403.04 296.17C402.45 295.05 400.87 288.5 399.15 280.09C398.88 278.78 398.61 277.44 398.33 276.09C398.19 275.41 398.06 274.71 397.93 274.01C397.8 273.31 397.62 272.4 397.47 271.6C397.32 270.8 397.14 269.88 396.98 269.01C396.63 267.09 396.28 265.15 395.98 263.22C395.68 261.29 395.34 259.4 395.05 257.54C394.126 252.151 393.492 246.717 393.15 241.26C392.539 228.896 394.058 216.519 397.64 204.67C397.73 204.36 397.82 204.06 397.89 203.76C398.03 203.24 398.16 202.76 398.28 202.21L398.46 201.4C398.52 201.13 398.57 200.86 398.62 200.59C398.67 200.32 398.73 200.05 398.77 199.79C398.81 199.53 398.86 199.25 398.9 198.98C398.99 198.46 399.06 197.93 399.13 197.42C399.27 196.14 399.38 194.88 399.43 193.65C399.43 193.48 399.43 193.31 399.43 193.15C399.43 192.28 399.43 191.42 399.43 190.57C399.338 186.665 398.9 182.777 398.12 178.95C396.86 172.42 395.17 167.51 395.59 165.25C395.79 164.14 396.94 163.47 398.96 163.18C399.1 163.18 399.25 163.18 399.38 163.13C404.38 162.55 413.92 163.96 426.94 166.65C427.204 163.728 427.668 160.828 428.33 157.97C428.459 157.524 428.732 157.134 429.107 156.861C429.481 156.587 429.936 156.446 430.4 156.46C431.82 156.33 433.74 156.85 435.58 157.02C438.71 157.31 449.36 155.37 454.84 152.48C455.941 151.837 457.157 151.415 458.42 151.24C461.05 150.99 461.96 153.06 462.3 155.89C462.3 156.01 462.3 156.14 462.3 156.26C462.3 156.38 462.3 156.52 462.3 156.66C462.3 156.8 462.3 157.18 462.36 157.45C462.42 157.72 462.36 157.85 462.41 158.06C462.46 158.27 462.41 158.61 462.46 158.89C462.51 159.17 462.46 159.56 462.46 159.89C462.46 160.22 462.46 160.53 462.46 160.89C462.46 161.05 462.46 161.22 462.46 161.39C462.46 161.56 462.46 161.67 462.46 161.81C462.46 161.95 462.46 162.19 462.46 162.38C462.46 162.57 462.46 162.86 462.46 163.09C462.46 163.32 462.46 163.56 462.46 163.79V164.24C462.46 166.24 462.46 167.84 462.46 167.84C472.36 164.09 487.28 160.26 498.59 167.21H498.65C502.331 169.542 505.375 172.751 507.51 176.55C508.07 177.497 508.6 178.497 509.1 179.55C518.64 199.62 501.44 216.69 495 238.57Z" fill="#DE1536"/>
<path d="M507.74 176.51C498.19 177.68 487.5 183.88 477.47 195.8C475.91 197.653 474.37 199.653 472.85 201.8C456.72 224.37 428.63 218.39 417.85 201.93C416.67 200.146 415.703 198.23 414.97 196.22C411.52 186.73 405.2 181.34 398.15 178.96C396.89 172.43 395.2 167.52 395.62 165.26C395.82 164.15 396.97 163.48 398.99 163.19C399.13 163.19 399.28 163.19 399.41 163.14C404.41 162.56 413.95 163.97 426.97 166.66C427.234 163.738 427.698 160.838 428.36 157.98C428.489 157.534 428.762 157.144 429.137 156.871C429.511 156.597 429.966 156.456 430.43 156.47C431.85 156.34 433.77 156.86 435.61 157.03C438.74 157.32 449.39 155.38 454.87 152.49C455.971 151.847 457.187 151.425 458.45 151.25C461.08 151 461.99 153.07 462.33 155.9C462.33 156.02 462.33 156.15 462.33 156.27C462.33 156.39 462.33 156.53 462.33 156.67C462.33 156.81 462.33 157.19 462.39 157.46C462.45 157.73 462.39 157.86 462.44 158.07C462.49 158.28 462.44 158.62 462.49 158.9C462.54 159.18 462.49 159.57 462.49 159.9C462.49 160.23 462.49 160.54 462.49 160.9C462.49 161.06 462.49 161.23 462.49 161.4C462.49 161.57 462.49 161.68 462.49 161.82C462.49 161.96 462.49 162.2 462.49 162.39C462.49 162.58 462.49 162.87 462.49 163.1C462.49 163.33 462.49 163.57 462.49 163.8V164.25C462.49 166.25 462.49 167.85 462.49 167.85C472.39 164.1 487.31 160.27 498.62 167.22H498.68C502.428 169.512 505.543 172.706 507.74 176.51V176.51Z" fill="#DE1536"/>
<path d="M399.09 193.15C399.058 195.982 398.777 198.807 398.25 201.59C398.01 202.78 397.73 203.99 397.39 205.22C393.935 217.105 392.548 229.495 393.29 241.85C393.688 247.303 394.376 252.73 395.35 258.11C395.66 259.96 396 261.86 396.35 263.78C397.41 269.54 398.6 275.45 399.73 280.65C401.54 289.03 403.19 295.57 403.79 296.65" stroke="#CB1835" stroke-width="0.68" stroke-linecap="round" stroke-linejoin="round"/>
<path d="M493.31 246.96C489.62 271.62 489.37 294.44 489.12 296.81C488.87 299.18 466.83 298.61 450.43 297.97C444.04 297.72 435.78 297.9 427.99 298.04C434.39 292.71 447.63 283.95 460.33 289.49C477.96 297.18 486.27 272.92 475.51 270.75C464.75 268.58 464.19 256.34 462.09 246.44L470.89 242.87L493.31 246.96Z" fill="#CB1835"/>
<path d="M426.33 166.89C426.221 168.798 426.221 170.712 426.33 172.62" stroke="#CB1835" stroke-width="0.68" stroke-linecap="round" stroke-linejoin="round"/>
<path d="M462.09 167.32C461.95 171.08 461.78 173.53 461.78 173.53" stroke="#CB1835" stroke-width="0.68" stroke-linecap="round" stroke-linejoin="round"/>
<path d="M434.87 173.12C439.71 174.51 447.15 174.59 451.41 173.12" stroke="#CB1835" stroke-width="0.68" stroke-linecap="round" stroke-linejoin="round"/>
<path d="M539.56 261.46C534.56 267.81 520.97 269.03 509.91 260.2C506.825 257.709 504.185 254.713 502.1 251.34C500.88 249.4 499.31 246.46 497.56 243C496.79 241.46 495.97 239.82 495.14 238.12C490.49 228.6 485.14 217.06 481.76 210.46C480.064 207.125 478.795 203.591 477.98 199.94C477.64 198.49 477.37 197.02 477.16 195.54C474.61 177.77 480.99 159.11 498.22 166.66H498.27C501.7 168.17 505.35 171.44 509.02 175.73C517.92 186.17 526.86 202.73 532.56 215.18C533.86 218.01 534.98 220.63 535.9 222.92C542.56 239.48 545.79 253.48 539.56 261.46Z" fill="#DE1536"/>
<path d="M513.41 233.38C513.02 239.59 505.73 242.15 497.56 243C496.79 241.46 495.97 239.82 495.14 238.12C490.49 228.6 485.14 217.06 481.76 210.46C480.065 207.125 478.795 203.591 477.98 199.94C484.98 200.09 492.61 202.65 493.31 214.66C493.79 222.86 514.29 219.17 513.41 233.38Z" fill="#CB1835"/>
<path d="M509.02 175.76C508.42 175.76 507.82 175.86 507.23 175.94C497.69 177.2 487.07 183.52 477.16 195.54C474.61 177.77 480.99 159.11 498.22 166.66H498.27C501.7 168.2 505.35 171.47 509.02 175.76Z" fill="#DE1536"/>
<path d="M502.1 251.34C500.88 249.4 499.31 246.46 497.56 243C496.79 241.46 495.97 239.82 495.14 238.12C490.49 228.6 485.14 217.06 481.76 210.46C480.064 207.125 478.794 203.591 477.98 199.94C477.64 198.49 477.37 197.02 477.16 195.54" stroke="#CB1835" stroke-width="0.68" stroke-linecap="round" stroke-linejoin="round"/>
<path d="M539.56 261.46C534.56 267.81 520.97 269.03 509.91 260.2C512.636 259.325 515.526 259.082 518.36 259.49C529.62 261.13 540.73 256.49 532.07 243.38C525.07 232.75 530.07 219.38 532.56 215.21C533.86 218.04 534.98 220.66 535.9 222.95C542.56 239.48 545.79 253.48 539.56 261.46Z" fill="#CB1835"/>
<path d="M467.24 93.4099C465.13 94.9099 463.83 95.1499 463.88 97.4099C463.93 99.6699 462.95 100.33 461.96 100.7C460.97 101.07 462.08 102.75 461.77 104.37C461.46 105.99 457.3 107.53 457.3 107.53L429.67 94.5299C427.37 91.7299 428.37 90.1799 429.11 88.6799C429.182 88.5391 429.22 88.3831 429.22 88.2249C429.22 88.0667 429.182 87.9108 429.11 87.7699C428.72 86.7699 427.04 85.8199 427.47 84.6499C428.02 83.1599 429.47 82.9099 431.25 82.8499C433.03 82.7899 432.64 77.8499 431.82 76.5099C431 75.1699 431.63 71.9199 434.42 72.1099C437.21 72.2999 438.27 71.7399 438.52 70.4299C438.688 69.9739 438.949 69.5573 439.285 69.2063C439.621 68.8553 440.026 68.5773 440.475 68.3897C440.923 68.202 441.406 68.1088 441.892 68.1157C442.378 68.1226 442.857 68.2296 443.3 68.4299C445.47 69.5599 447.3 68.3099 448.64 67.0699C448.717 66.9922 448.8 66.9219 448.89 66.8599C450.32 65.7499 453.32 65.1399 454.54 67.0699C455.76 68.9999 457.4 69.9299 460.01 70.0699C462.62 70.2099 463.36 72.4299 462.8 74.5999C462.24 76.7699 463.05 77.5199 464.73 78.5199C465.61 79.2145 466.259 80.1603 466.589 81.2319C466.92 82.3035 466.916 83.4502 466.58 84.5199C466.242 85.1524 466.121 85.8781 466.235 86.5861C466.348 87.294 466.691 87.9452 467.21 88.4399C468.04 89.3799 469.35 91.9199 467.24 93.4099Z" fill="#683F1D"/>
<path d="M456.71 128.93C454.528 129.866 452.162 130.293 449.79 130.18C440.3 129.74 417.13 138.32 417.13 138.32C413.24 138.8 410.87 140.14 412.63 142.08C414.39 144.02 416.04 149.62 411.54 150.08C410.655 150.163 409.765 150.163 408.88 150.08C406.24 149.85 405.07 148.74 405.4 147.7C405.82 146.37 408.68 146.7 409.22 146.12C409.76 145.54 409.89 144.36 408.13 142.71C406.37 141.06 405.13 138.52 406.92 135.93C408.71 133.34 412.33 130.98 410.14 129.15C407.95 127.32 406.14 125.68 407.14 123.49C408.14 121.3 413.22 118.2 410.85 115.49C408.48 112.78 406.35 109.35 410.97 105.15C415.59 100.95 420.27 101.75 419.6 98.15C418.93 94.55 419.49 91.09 424.47 91.94C429.45 92.79 430.19 92.43 432.38 91.21C434.57 89.99 437.48 90.66 440.29 93.1C443.1 95.54 445.76 92.79 449.16 93.46C452.56 94.13 449.16 97.41 453.48 98.15C457.8 98.89 459.26 99.06 459.75 103.15C460.24 107.24 463.1 107.33 463.69 108.63C464.92 111.24 462.97 113.07 462.42 114.63C461.87 116.19 463.08 117.11 464.04 118.71C465.57 121.42 462.31 126.55 456.71 128.93Z" fill="#683F1D"/>
<path d="M458.19 121.62C457.873 124.091 457.368 126.535 456.68 128.93C454.498 129.866 452.132 130.293 449.76 130.18C440.27 129.74 417.1 138.32 417.1 138.32C413.21 138.8 410.84 140.14 412.6 142.08C414.36 144.02 416.01 149.62 411.51 150.08C410.625 150.163 409.735 150.163 408.85 150.08C412.22 149.53 413.12 147.13 411.38 143.95C408.99 139.58 409.85 136.95 412.25 134.48C414.65 132.01 410.72 126.05 412.25 122.93C413.78 119.81 416.38 118.71 415.34 114C414.3 109.29 414.81 107 418.56 104.41C422.31 101.82 425.41 101.29 427.4 98.1699C429.39 95.0499 434.58 93.0699 436.35 96.8099C438.12 100.55 438.69 103.08 443.66 101.56C448.63 100.04 451.96 101.91 450.19 106.18C448.42 110.45 449.26 114.5 452.38 115.02C455.5 115.54 458.81 115.7 458.19 121.62Z" fill="#683F1D"/>
<path d="M454.65 135.91C435.98 149.49 427.93 153.96 419 146.45C414.84 142.96 414.12 135.83 414.94 128.55C415.246 125.953 415.713 123.378 416.34 120.84C417.274 116.711 418.708 112.712 420.61 108.93C424.61 101.69 433.83 101.33 434.76 101.69C435.69 102.05 435.98 102.59 435.08 104.69C434.18 106.79 435.17 108.36 437.76 108.44C440.35 108.52 443.31 110.32 443.03 112.91C442.861 114.171 443.067 115.454 443.624 116.598C444.181 117.741 445.063 118.695 446.16 119.34C448.57 120.86 448.16 123.19 448.48 124.61C448.8 126.03 451.79 127.61 452.6 125.68C453.41 123.75 458.04 119.52 461.8 123.37C465.56 127.22 462.24 136.18 454.65 135.91Z" fill="#B25E47"/>
<path d="M432.27 126.2C433.17 128.07 436.41 128.37 439.49 126.88C442.57 125.39 444.36 122.67 443.49 120.8C442.62 118.93 439.36 118.62 436.27 120.12C433.18 121.62 431.37 124.33 432.27 126.2Z" fill="#914839"/>
<path d="M419.68 127.83C418.83 129.02 416.95 129.24 414.94 128.55C415.246 125.953 415.713 123.378 416.34 120.84C416.509 120.937 416.673 121.044 416.83 121.16C419.62 123.16 420.89 126.15 419.68 127.83Z" fill="#914839"/>
<path d="M419.32 118.8C419.318 119.053 419.392 119.302 419.531 119.514C419.67 119.726 419.87 119.891 420.103 119.99C420.337 120.088 420.595 120.115 420.844 120.067C421.093 120.018 421.322 119.897 421.502 119.719C421.682 119.54 421.805 119.312 421.855 119.063C421.905 118.815 421.88 118.557 421.784 118.322C421.687 118.088 421.523 117.887 421.312 117.746C421.102 117.605 420.854 117.53 420.6 117.53C420.262 117.53 419.938 117.663 419.699 117.901C419.459 118.139 419.323 118.462 419.32 118.8Z" fill="#683F1D"/>
<path d="M427.12 119.48C427.12 119.733 427.195 119.981 427.336 120.191C427.476 120.402 427.676 120.566 427.91 120.663C428.144 120.759 428.402 120.785 428.65 120.735C428.898 120.686 429.126 120.564 429.305 120.385C429.484 120.206 429.606 119.978 429.656 119.73C429.705 119.481 429.68 119.224 429.583 118.99C429.486 118.756 429.322 118.556 429.111 118.416C428.901 118.275 428.653 118.2 428.4 118.2C428.061 118.2 427.735 118.335 427.495 118.575C427.255 118.815 427.12 119.14 427.12 119.48Z" fill="#683F1D"/>
<path d="M453.96 130.19C454.21 127.44 457.35 123.65 460.74 126.45" stroke="#914839" stroke-width="0.68" stroke-linecap="round" stroke-linejoin="round"/>
<path d="M454.08 129.51C456.43 125.51 461.16 131 455.65 132.1" stroke="#914839" stroke-width="0.68" stroke-linecap="round" stroke-linejoin="round"/>
<path d="M422.97 126.99C421.57 126.34 421.02 125.07 421.14 124.76C421.26 124.45 425.64 121.22 424.8 116.25" stroke="#914839" stroke-width="0.68" stroke-linecap="round" stroke-linejoin="round"/>
<path d="M428.4 110.04C428 112.63 434.29 115.16 435.26 113.53C436.09 112.13 428.98 106.27 428.4 110.04Z" fill="#683F1D"/>
<path d="M417.84 111.75C417.9 112.49 424.65 112.34 424.56 109.75C424.47 107.16 417.67 109.57 417.84 111.75Z" fill="#683F1D"/>
<path d="M423.63 129.61C425.97 128.994 428.255 128.185 430.46 127.19C430.46 127.19 431.16 131.51 428.4 132.3C427.91 132.441 427.397 132.483 426.891 132.424C426.385 132.365 425.895 132.205 425.451 131.955C425.007 131.704 424.618 131.368 424.305 130.965C423.992 130.563 423.763 130.102 423.63 129.61Z" fill="white" stroke="#914839" stroke-width="0.68" stroke-linecap="round" stroke-linejoin="round"/>
<path d="M459.19 82.9199C458.19 86.1399 454.4 82.8099 454.1 87.4099C453.8 92.0099 444.62 90.7199 441.81 86.2499C439.51 82.5699 432.99 83.9499 429.16 87.8399C428.77 86.8399 427.09 85.8899 427.52 84.7199C428.07 83.2299 429.52 82.9799 431.3 82.9199C433.08 82.8599 432.69 77.9199 431.87 76.5799C431.05 75.2399 431.68 71.9899 434.47 72.1799C437.26 72.3699 438.32 71.8099 438.57 70.4999C438.738 70.0439 438.999 69.6273 439.335 69.2763C439.671 68.9253 440.076 68.6473 440.525 68.4597C440.973 68.272 441.456 68.1788 441.942 68.1857C442.428 68.1926 442.907 68.2996 443.35 68.4999C445.52 69.6299 447.35 68.3799 448.69 67.1399C448.767 67.0622 448.85 66.9919 448.94 66.9299C450.01 69.9299 450.79 74.1099 454.94 74.4799C460.73 75.0099 460.19 79.6899 459.19 82.9199Z" fill="#683F1D"/>
<path d="M339.64 171.38C340.16 168.08 349.43 165.62 354.82 164.59L356.88 177.91C356.88 177.91 342.06 175.79 339.64 171.38Z" fill="#CB1835"/>
<path d="M348.26 178.46C347.19 164.04 347.19 151.91 346.89 147.27C346.59 142.63 346.82 137.78 352.23 135.55C352.23 135.55 352.23 131.3 358.4 130.55C358.4 130.55 357.62 126.74 362.78 126.84C362.769 126.483 362.842 126.129 362.991 125.804C363.14 125.48 363.363 125.195 363.641 124.971C363.919 124.747 364.245 124.591 364.594 124.515C364.942 124.438 365.304 124.443 365.65 124.53C369.03 125.12 370.12 127.19 370.12 127.19C374.6 126.19 377.12 130.88 376.88 134.71C376.64 138.54 376.37 142.71 374.52 146.57C372.67 150.43 370.32 156.82 370.32 156.82L370.47 164.92C370.47 164.92 367.03 190.97 348.26 178.46Z" fill="#B25E47"/>
<path d="M346.89 147.27C346.58 142.68 346.82 137.78 352.23 135.55C352.23 135.55 352.23 131.3 358.4 130.55C358.4 130.55 357.62 126.74 362.78 126.84C362.769 126.483 362.842 126.129 362.991 125.804C363.14 125.48 363.363 125.195 363.641 124.971C363.919 124.747 364.245 124.591 364.594 124.515C364.942 124.438 365.304 124.443 365.65 124.53C369.03 125.12 370.12 127.19 370.12 127.19C374.6 126.19 377.12 130.88 376.88 134.71" stroke="#914839" stroke-width="0.68" stroke-linecap="round" stroke-linejoin="round"/>
<path d="M370.12 127.19C365.51 129.46 362.12 133.72 363.51 135.81C364.9 137.9 370.13 135.28 370.84 134.61" stroke="#914839" stroke-width="0.68" stroke-linecap="round" stroke-linejoin="round"/>
<path d="M362.39 126.85C364.13 127.08 367.56 129.01 367.56 129.01" stroke="#914839" stroke-width="0.68" stroke-linecap="round" stroke-linejoin="round"/>
<path d="M358.4 130.55C360.421 130.632 362.402 131.144 364.21 132.05" stroke="#914839" stroke-width="0.68" stroke-linecap="round" stroke-linejoin="round"/>
<path d="M363.42 141.74C364.96 140.57 366.29 138.51 365.89 136.6" stroke="#914839" stroke-width="0.68" stroke-linecap="round" stroke-linejoin="round"/>
<path d="M352.19 135.59C355.87 134.08 359.61 132.37 360.72 134.88C361.83 137.39 362.44 145.12 360.72 146.17C359 147.22 356.12 146.35 355.63 144.33C355.14 142.31 354.77 139.54 354.77 139.54" stroke="#914839" stroke-width="0.68" stroke-linecap="round" stroke-linejoin="round"/>
<path d="M359.06 146.61C360.61 148.52 360.06 155.28 358.4 157.54" stroke="#914839" stroke-width="0.68" stroke-linecap="round" stroke-linejoin="round"/>
<path d="M371.19 263.27C368.19 268.96 363.89 272.06 358.13 270.13C347.28 266.45 342.96 256.04 341.38 245.87C339.72 235.26 341.02 224.87 340.97 222.71C340.86 218.4 339.68 171.36 339.68 171.36C341.56 172.11 344.41 172.13 347.86 171.48C350.488 170.958 353.067 170.216 355.57 169.26C360.815 167.25 365.805 164.632 370.44 161.46L370.64 161.32C370.64 161.32 371.58 172.98 372.85 186.38C373.92 197.86 375.24 210.61 376.42 218.38C378.28 231.04 377.19 252.15 371.19 263.27Z" fill="#DE1536"/>
<path d="M371.19 263.27C368.19 268.96 363.89 272.06 358.13 270.13C347.28 266.45 342.96 256.04 341.38 245.87C343.312 249.155 345.592 252.222 348.18 255.02C356.19 263.63 364.56 265.48 371.19 263.27Z" fill="#CB1835"/>
<path d="M370.61 161.35C370.61 161.35 373.85 201.53 376.39 218.44C377.775 229.195 377.437 240.101 375.39 250.75" stroke="#CB1835" stroke-width="0.68" stroke-linecap="round" stroke-linejoin="round"/>
<path d="M485.33 209.692L446.75 193.578C443.708 192.307 440.211 193.743 438.941 196.785L416.031 251.633C414.76 254.675 416.196 258.172 419.239 259.443L457.819 275.557C460.861 276.828 464.358 275.392 465.628 272.349L488.538 217.502C489.809 214.459 488.372 210.963 485.33 209.692Z" fill="#DDDDDD"/>
<path d="M480.99 207.87L446.747 193.567C443.705 192.296 440.208 193.733 438.937 196.775L416.028 251.623C414.757 254.665 416.193 258.162 419.236 259.432L453.479 273.735C456.521 275.006 460.017 273.57 461.288 270.528L484.198 215.68C485.469 212.638 484.032 209.141 480.99 207.87Z" fill="#F9F9F9" stroke="#DDDDDD" stroke-width="0.9" stroke-linecap="round" stroke-linejoin="round"/>
<path d="M449.02 202.7C449.02 203.214 448.868 203.717 448.582 204.144C448.296 204.572 447.89 204.905 447.415 205.102C446.94 205.299 446.417 205.35 445.913 205.25C445.408 205.15 444.945 204.902 444.582 204.538C444.218 204.175 443.97 203.711 443.87 203.207C443.77 202.703 443.821 202.18 444.018 201.705C444.215 201.23 444.548 200.824 444.976 200.538C445.403 200.252 445.906 200.1 446.42 200.1C446.762 200.099 447.101 200.165 447.417 200.295C447.733 200.425 448.02 200.617 448.261 200.858C448.503 201.1 448.695 201.387 448.825 201.703C448.955 202.019 449.021 202.358 449.02 202.7Z" fill="#DDDDDD"/>
<path d="M453.31 205.27C453.312 205.528 453.237 205.781 453.095 205.996C452.953 206.211 452.75 206.379 452.512 206.479C452.274 206.579 452.012 206.605 451.759 206.555C451.506 206.506 451.273 206.382 451.091 206.199C450.908 206.017 450.784 205.784 450.735 205.531C450.685 205.278 450.711 205.016 450.811 204.778C450.911 204.54 451.079 204.337 451.294 204.195C451.509 204.053 451.762 203.978 452.02 203.98C452.361 203.983 452.688 204.119 452.929 204.361C453.171 204.602 453.307 204.929 453.31 205.27Z" fill="#DDDDDD"/>
<path d="M451.41 248.4C448.86 247.51 447.54 242.58 447.2 238.33L457.2 239.51C457.2 239.51 457.27 249.04 451.41 248.4Z" fill="#CB1835"/>
<path d="M454.77 245.89C451.933 243.864 448.996 241.982 445.97 240.25C444.83 239.63 438.36 238.9 433.86 236.42C430.828 234.706 427.906 232.806 425.11 230.73L423.33 234.04C423.33 234.04 419.83 230.26 419.33 226.85C418.83 223.44 420.21 223.33 421.03 222.6C421.85 221.87 421.34 220.79 421.29 219.03C421.24 217.27 422.74 216.91 423.21 216.29C423.68 215.67 423.26 214.06 423.16 211.89C423.06 209.72 425.64 209.61 426.05 208.37C426.46 207.13 426.83 203.14 430.35 204.18C433.87 205.22 449.19 216.6 450.19 217.12C451.679 217.653 453.203 218.084 454.75 218.41C454.75 218.41 467.29 238.02 454.77 245.89Z" fill="#B25E47"/>
<path d="M425.11 230.73L423.33 234.04C423.33 234.04 419.83 230.26 419.33 226.85C418.83 223.44 420.21 223.33 421.03 222.6C421.85 221.87 421.34 220.79 421.29 219.03C421.24 217.27 422.74 216.91 423.21 216.29C423.68 215.67 423.26 214.06 423.16 211.89C423.06 209.72 425.64 209.61 426.05 208.37C426.46 207.13 426.83 203.14 430.35 204.18" stroke="#914839" stroke-width="0.68" stroke-linecap="round" stroke-linejoin="round"/>
<path d="M425.11 230.73C423.36 229.26 423 229.02 423 229.02" stroke="#914839" stroke-width="0.68" stroke-linecap="round" stroke-linejoin="round"/>
<path d="M541.52 258.82C538.31 268.68 526.34 277.42 499.05 267.1L497.56 266.52C469.19 255.27 451.4 248.39 451.4 248.39C453.852 238.016 453.852 227.214 451.4 216.84C467.69 221.4 510.77 230.24 526.07 234.73C527.07 235.03 528.07 235.34 528.96 235.73C541.8 240.47 544.62 249.27 541.52 258.82Z" fill="#DE1536"/>
<path d="M497.56 266.52C469.19 255.27 451.41 248.4 451.41 248.4" stroke="#CB1835" stroke-width="0.68" stroke-linecap="round" stroke-linejoin="round"/>
<path d="M451.41 216.84C466.19 220.98 503.05 228.64 521.17 233.38" stroke="#CB1835" stroke-width="0.68" stroke-linecap="round" stroke-linejoin="round"/>
<path d="M541.52 258.82C538.31 268.68 526.34 277.42 499.05 267.1C499.05 267.1 507.05 257.85 518.36 259.49C529.67 261.13 540.73 256.49 532.07 243.38C530.536 241.047 529.479 238.433 528.96 235.69C541.8 240.47 544.62 249.27 541.52 258.82Z" fill="#CB1835"/>
<path d="M643.52 172.58C642.466 174.271 640.93 175.608 639.11 176.42C626.42 182.42 597.73 171 597.73 170.65C597.73 170.3 592.19 123.27 600.11 106.36C601.6 103.19 603.56 101.09 606.11 100.58C619.22 100.18 630.47 104.63 632.39 114.09C634.31 123.55 628.6 134.45 630.27 141.18C631.94 147.91 638.73 148.05 641.58 149.49C646.74 152.08 651.57 159.21 643.52 172.58Z" fill="#B25E47"/>
<path d="M639.11 176.42C626.42 182.42 597.73 171 597.73 170.65C597.73 170.3 592.19 123.27 600.11 106.36C621.55 107.14 625.11 115.05 623.5 126.01C621.79 137.66 613.99 153.63 630.97 165.13C636.09 168.61 638.39 172.57 639.11 176.42Z" fill="#B25E47"/>
<path d="M611.91 129.32C615.04 132.83 615.5 137.25 614.21 142.23C612.92 147.21 610.92 154.49 613.4 161.68" stroke="#683F1D" stroke-width="0.68" stroke-linecap="round" stroke-linejoin="round"/>
<path d="M626.29 124.89C626.13 131.56 624.12 136.15 623.55 142.43C622.98 148.71 626.86 152.33 631.77 154.26C633.807 155.109 635.425 156.731 636.27 158.769C637.115 160.808 637.119 163.099 636.28 165.14" stroke="#683F1D" stroke-width="0.68" stroke-linecap="round" stroke-linejoin="round"/>
<path d="M622.84 164.36C618.12 158.88 617.2 154.87 620.02 154.45C622.84 154.03 628.39 156.45 627.83 158.88C627.27 161.31 623.68 160.28 623.83 159.09" stroke="#683F1D" stroke-width="0.68" stroke-linecap="round" stroke-linejoin="round"/>
<path d="M600.75 196.43C587.35 203.43 577.6 196.74 576.34 189.32C575.52 184.46 576 173.26 576.28 161.62C576.42 155.53 576.52 149.3 576.34 143.82C576.34 142.96 576.34 142.13 576.34 141.31C576.34 106.67 602.8 114.7 604.95 128.11C606.31 136.62 608.4 153.57 609.42 162.51C610.44 171.45 614.19 189.43 600.75 196.43Z" fill="#FEBD9D"/>
<path d="M576.28 161.62C576.42 155.53 576.52 149.3 576.34 143.82C576.34 142.96 576.34 142.13 576.34 141.31C582.92 140.99 593.34 140.67 593.34 140.67C595.26 154.18 587.56 162.9 576.28 161.62Z" fill="#F4A789"/>
<path d="M528.92 315.71C530.13 317.56 538.92 310.71 541.44 306.71L532.51 294.39C532.51 294.39 525.45 310.34 528.92 315.71Z" fill="#A7CAF0"/>
<path d="M550.61 282.66C561.61 299.45 566.71 304.75 567.5 311.74C568.29 318.73 565.36 336.08 557.59 339.01C549.82 341.94 531.89 329.65 531.21 326.84C530.53 324.03 539.04 325.26 543.02 327.17C543.02 327.17 535.42 316.97 535.42 305.54C535.42 302.61 524.9 296.86 524.9 296.86C524.9 296.86 533.61 270.71 550.61 282.66Z" fill="#FEBD9D"/>
<path d="M683.12 409.01C649.05 396.89 607.12 385.18 562.8 375.38V355.52C562.8 350.15 563.42 341.07 564.22 331.24C564.87 323.12 565.64 314.49 566.22 307.04C566.75 300.78 567.16 295.34 567.34 291.73L580.85 291.59L606.06 291.35L657.53 290.84L665.88 290.76C666.83 314.47 675.14 342.6 680.99 363.95C685.19 379.17 684.1 398.79 683.12 409.01Z" fill="#683F1D"/>
<path d="M654.19 330.34C650.8 341.19 654.41 351.98 660.97 355.52" stroke="#7F542D" stroke-width="0.68" stroke-linecap="round" stroke-linejoin="round"/>
<path d="M528.92 242.87L535.01 253.51L553.13 285.17" stroke="#83ADDF" stroke-width="0.68" stroke-linecap="round" stroke-linejoin="round"/>
<path d="M655.59 293.09C652.99 293.62 638.49 294.09 621.98 294.29C596.98 294.55 567.38 294.04 567.38 291.73C567.38 288.11 568.96 284.73 564.44 276.8C559.92 268.87 552.44 262.68 551.77 248.25C551.1 233.82 554.48 217.76 554.48 217.76L547.39 224.76L528.92 242.87L535.01 253.51L553.13 285.17C553.13 285.17 528.7 294.67 528.92 315.71C528.92 315.71 495.45 274.09 485.5 259.84C475.55 245.59 486.85 229.3 502.91 212.56C510.91 204.2 519.7 192.94 528.48 183.46C537.26 173.98 546.11 166.3 554.26 165.13C558.87 164.47 565.26 163.9 572.14 163.44C573.48 163.34 574.83 163.25 576.2 163.17C575.83 177.3 579.91 179.91 579.91 179.91C581.91 181.09 582.12 180.54 582.3 182.91C582.48 185.28 583.58 192 585.51 192C588.18 192 589.9 187.62 592.16 181.28C593.65 173.7 603.01 170.74 606.03 166.62C607.077 165.138 607.809 163.456 608.18 161.68H609.29C611.04 162.11 613.15 162.6 615.46 163.07C621.46 164.29 628.83 165.41 634.81 165.13C642.74 164.77 665.96 165.24 672.87 183.57C672.87 183.57 672.87 183.62 672.87 183.65C673.16 184.43 673.42 185.25 673.66 186.1C673.84 186.77 674 187.51 674.14 188.31C678.24 212.27 661.94 291.77 655.59 293.09Z" fill="#A7CAF0"/>
<path d="M633.19 230.42C619.59 235.19 615.95 253.97 619.03 261.53C622.11 269.09 611.6 272.79 601.57 272.79C590.02 272.79 576.29 284.94 582.17 302.32L641.17 275.32L633.19 230.42Z" fill="#A7CAF0"/>
<path d="M674.61 188.49C674.47 188.42 674.31 188.37 674.17 188.31C661.83 183.43 647.38 186.51 637.98 194.31C635.594 196.259 633.529 198.57 631.86 201.16C620.61 218.85 584.43 228.51 572.55 205.32C562.93 186.52 548.55 180.63 528.48 183.47C537.28 173.99 546.11 166.31 554.26 165.14C558.87 164.48 565.26 163.91 572.14 163.45C573.48 163.35 574.83 163.26 576.2 163.18C575.83 177.31 579.91 179.92 579.91 179.92C581.91 181.1 582.12 180.55 582.3 182.92C582.48 185.29 583.58 192.01 585.51 192.01C588.18 192.01 589.9 187.63 592.16 181.29C593.65 173.71 603.01 170.75 606.03 166.63C607.077 165.148 607.809 163.466 608.18 161.69H609.29C611.04 162.12 613.15 162.61 615.46 163.08C621.46 164.3 628.83 165.42 634.81 165.14C642.74 164.78 665.96 165.25 672.87 183.58C672.87 183.58 672.87 183.63 672.87 183.66C673.559 185.229 674.14 186.843 674.61 188.49Z" fill="#A7CAF0"/>
<path d="M588.79 198.67C589.944 198.67 590.88 197.734 590.88 196.58C590.88 195.426 589.944 194.49 588.79 194.49C587.636 194.49 586.7 195.426 586.7 196.58C586.7 197.734 587.636 198.67 588.79 198.67Z" fill="#83ADDF"/>
<path d="M584.36 195.6C584.98 201.22 583.24 211.14 581.91 221.17C580.58 231.2 577.41 245 581.91 259.17C586.41 273.34 587.42 277.69 587.54 279.42C587.74 282.49 585.4 286 591.22 288.42" stroke="#83ADDF" stroke-width="0.68" stroke-linecap="round" stroke-linejoin="round"/>
<path d="M579.91 179.91C574.35 178.59 570.39 185.37 568.27 191.1C568.06 174.54 570.06 166.93 572.14 163.44C574.22 159.95 576.31 160.61 576.31 160.61C576.25 161.51 576.22 162.36 576.2 163.17C575.83 177.27 579.91 179.91 579.91 179.91Z" fill="#83ADDF"/>
<path d="M615.52 169.59C614.04 179.02 608.13 192.02 608.13 192.02C608.13 192.02 603.43 186.7 600.13 182.68C596.83 178.66 594.92 179.32 592.13 181.3C593.62 173.72 602.98 170.76 606 166.64C607.047 165.158 607.779 163.476 608.15 161.7C608.542 160.023 608.717 158.302 608.67 156.58C610.326 156.84 611.861 157.602 613.07 158.763C614.279 159.923 615.103 161.427 615.43 163.07C615.875 165.218 615.905 167.431 615.52 169.59Z" fill="#83ADDF"/>
<path d="M524.43 301.65C525.53 295.71 533.1 285.33 545.11 279.87" stroke="#83ADDF" stroke-width="0.68" stroke-linecap="round" stroke-linejoin="round"/>
<path d="M513.41 229.44C515.174 229.543 516.88 230.105 518.36 231.07C521.36 232.82 525.03 236.29 528.92 242.87" stroke="#83ADDF" stroke-width="0.68" stroke-linecap="round" stroke-linejoin="round"/>
<path d="M554.48 217.76L556.27 210.1" stroke="#83ADDF" stroke-width="0.68" stroke-linecap="round" stroke-linejoin="round"/>
<path d="M547.39 224.73L528.92 242.87C525.03 236.29 521.32 232.82 518.36 231.07C523.15 228.92 525.51 230.88 527.83 232.59C533.57 236.85 538.98 219.99 547.39 224.73Z" fill="#A7CAF0"/>
<path d="M675.47 251.97C673.32 269.85 669.91 287.06 666.39 298.88C659.6 321.64 642.55 322.94 631.54 315.68C625.16 311.46 620.8 304.37 621.66 296.9C621.74 296.16 621.85 295.29 621.98 294.29C623.98 278.97 630.67 234.01 634.7 208.45C635.411 203.643 636.508 198.901 637.98 194.27C643.22 178.27 651.98 173.32 662.76 174.43C667.22 174.89 670.52 178.21 672.87 183.54C672.87 183.54 672.87 183.59 672.87 183.62C673.549 185.193 674.12 186.81 674.58 188.46C678.92 203.5 678.3 228.27 675.47 251.97Z" fill="#A7CAF0"/>
<path d="M675.47 251.97C673.32 269.85 669.91 287.06 666.39 298.88C659.6 321.64 642.55 322.94 631.54 315.68C633.604 313.692 636.186 312.327 638.99 311.74C651.42 309.4 658.83 299.87 656.99 279.87C655.55 264.69 668.92 255.52 675.47 251.97Z" fill="#A7CAF0"/>
<path d="M674.61 188.49C674.47 188.42 674.31 188.37 674.17 188.31C661.83 183.43 647.38 186.51 637.98 194.31C643.22 178.31 651.98 173.36 662.76 174.47C667.22 174.93 670.52 178.25 672.87 183.58C672.87 183.58 672.87 183.63 672.87 183.66C673.559 185.229 674.14 186.843 674.61 188.49Z" fill="#A7CAF0"/>
<path d="M624.98 272.79C627.88 252.79 631.98 226.04 634.7 208.45C635.411 203.643 636.508 198.901 637.98 194.27C639.078 190.76 640.61 187.401 642.54 184.27" stroke="#83ADDF" stroke-width="0.68" stroke-linecap="round" stroke-linejoin="round"/>
<path d="M540.31 355.51C535.05 356.51 529.72 348.66 527.96 343.83C526.2 339 540.25 336.83 540.25 336.83C540.25 336.83 544.82 351.76 540.31 355.51Z" fill="#A7CAF0"/>
<path d="M527.3 320.47C517.02 323.9 492.92 335.88 491.63 336.88C490.34 337.88 486.5 346.64 486.36 347.96C486.22 349.28 484.65 362.96 487.21 363.84C489.77 364.72 491.06 359.04 491.63 355.52C492.173 352.904 493.037 350.365 494.2 347.96C494.2 347.96 492.64 353.49 494.92 355.52C496.24 356.7 499.19 355.52 499.19 355.52C499.19 355.52 499.91 359.13 504.62 357.42C504.62 357.42 504.34 361.25 507.44 362C510.54 362.75 513.44 359.29 514.67 357.25C515.11 356.56 514 354.54 512.56 354.54C512.56 354.54 513.84 353.71 517.69 353.71C521.54 353.71 526.13 353.93 529.07 349.48C532.01 345.03 535.33 342.91 538.07 342.2L527.3 320.47Z" fill="#FEBD9D"/>
<path d="M486.36 347.96C486.21 349.29 484.65 362.96 487.21 363.84C489.77 364.72 491.06 359.04 491.63 355.52C492.173 352.904 493.036 350.365 494.2 347.96C494.2 347.96 492.64 353.49 494.92 355.52C496.24 356.7 499.19 355.52 499.19 355.52C499.19 355.52 499.91 359.13 504.62 357.42C504.62 357.42 504.34 361.25 507.44 362C510.54 362.75 513.44 359.29 514.67 357.25C515.11 356.56 514 354.54 512.56 354.54" stroke="#F4A789" stroke-width="0.68" stroke-linecap="round" stroke-linejoin="round"/>
<path d="M513.13 354.64C512.348 354.526 511.55 354.58 510.79 354.8" stroke="#F4A789" stroke-width="0.68" stroke-linecap="round" stroke-linejoin="round"/>
<path d="M511.52 352.27C510.75 354.27 509.79 357.33 510.17 358.21" stroke="#F4A789" stroke-width="0.68" stroke-linecap="round" stroke-linejoin="round"/>
<path d="M504.63 358.17C504.561 354.1 505.598 350.087 507.63 346.56" stroke="#F4A789" stroke-width="0.68" stroke-linecap="round" stroke-linejoin="round"/>
<path d="M499.19 355.52C498.44 352.52 500.75 344.89 502.6 342.67" stroke="#F4A789" stroke-width="0.68" stroke-linecap="round" stroke-linejoin="round"/>
<path d="M494.19 347.96C494.48 345.96 494.89 340.49 497.88 337.96" stroke="#F4A789" stroke-width="0.68" stroke-linecap="round" stroke-linejoin="round"/>
<path d="M651.26 318.27C646.81 320.61 636.14 324.63 623.08 329.19C589.61 340.86 540.44 356.05 540.31 355.51C540.13 354.76 535.81 335.06 520.99 321.93C520.99 321.93 589.75 289.07 611.78 278.78C625.01 272.6 645.25 262.1 656.15 272.09C656.55 272.45 656.93 272.83 657.29 273.22C669.04 285.59 666.61 310.18 651.26 318.27Z" fill="#A7CAF0"/>
<path d="M651.26 318.27C646.81 320.61 636.14 324.63 623.08 329.19C625.39 323.19 630.42 313.35 638.99 311.74C651.42 309.4 658.83 299.87 656.99 279.87C656.778 277.649 656.889 275.409 657.32 273.22C669.04 285.59 666.61 310.18 651.26 318.27Z" fill="#A7CAF0"/>
<path d="M520.99 321.93C520.99 321.93 589.75 289.07 611.78 278.78C618.1 275.83 626.02 271.89 633.78 269.67" stroke="#83ADDF" stroke-width="0.68" stroke-linecap="round" stroke-linejoin="round"/>
<path d="M535.42 319.61C543.73 329.8 550.61 347.96 550.61 347.96" stroke="#83ADDF" stroke-width="0.68" stroke-linecap="round" stroke-linejoin="round"/>
<path d="M610.3 100.69C616.53 103.69 621.68 116.8 610.65 124.89C599.62 132.98 604.65 113.66 604.92 113.29C605.19 112.92 605.54 101.14 610.3 100.69Z" fill="#DE1536"/>
<path d="M610.69 117.36C610.219 118.261 609.573 119.06 608.79 119.71C608.79 119.71 596.93 127.86 589.54 123.51C582.15 119.16 573.1 108.84 573.1 108.84C569.77 106.36 567.95 104.42 567.29 102.25C566.969 101.132 566.911 99.9545 567.12 98.81C567.73 94.95 571.83 86.31 584.88 89.51C584.88 89.51 587.17 86.61 591.88 88.36C596.59 90.11 600.69 95.25 600.69 95.25C600.69 95.25 605.28 93.62 610.29 100.69C614.24 106.27 612.91 113.46 610.69 117.36Z" fill="#B25E47"/>
<path d="M610.69 117.36C610.219 118.261 609.573 119.06 608.79 119.71C608.79 119.71 596.93 127.86 589.54 123.51C582.15 119.16 573.1 108.84 573.1 108.84C569.77 106.36 567.95 104.42 567.29 102.25C567.89 95.96 570.79 91.46 576.9 93.34C585.56 96.01 589.74 100.8 598.36 98.49C598.36 98.49 600.54 115.51 610.69 117.36Z" fill="#B25E47"/>
<path d="M571.58 96.75C573.14 95.05 576.33 95.12 581.07 100.05" stroke="#683F1D" stroke-width="0.68" stroke-linecap="round" stroke-linejoin="round"/>
<path d="M582.08 88.98C585.646 89.7245 589.015 91.21 591.97 93.34" stroke="#683F1D" stroke-width="0.68" stroke-linecap="round" stroke-linejoin="round"/>
<path d="M600.7 95.27C601.501 96.2613 602.173 97.35 602.7 98.51" stroke="#683F1D" stroke-width="0.68" stroke-linecap="round" stroke-linejoin="round"/>
<path d="M603.19 131.96C592.66 146.78 579.06 154.86 570.85 147.96C564.79 142.89 564.75 132.8 566.18 124.67C566.593 122.305 567.151 119.967 567.85 117.67C567.91 117.47 567.98 117.28 568.04 117.09C570.61 109.09 574.41 97.09 580.53 99.58C580.53 99.58 585.31 103.86 594.37 102.02C594.37 102.02 589.72 119.02 600.25 121.02C600.25 121.02 604.9 115.02 610.25 118.21C615.6 121.4 615.66 131.83 603.19 131.96Z" fill="#FEBD9D"/>
<path d="M581.31 114.38C581.308 114.634 581.381 114.882 581.521 115.094C581.66 115.306 581.86 115.471 582.093 115.57C582.327 115.668 582.585 115.695 582.834 115.647C583.083 115.598 583.312 115.477 583.492 115.299C583.672 115.12 583.794 114.892 583.845 114.643C583.895 114.395 583.87 114.137 583.774 113.902C583.677 113.668 583.513 113.468 583.302 113.326C583.092 113.185 582.844 113.11 582.59 113.11C582.252 113.11 581.928 113.243 581.689 113.481C581.449 113.719 581.313 114.042 581.31 114.38Z" fill="#683F1D"/>
<path d="M572.55 114.38C572.548 114.634 572.622 114.882 572.761 115.094C572.9 115.306 573.1 115.471 573.333 115.57C573.567 115.668 573.825 115.695 574.074 115.647C574.323 115.598 574.552 115.477 574.732 115.299C574.912 115.12 575.035 114.892 575.085 114.643C575.135 114.395 575.11 114.137 575.014 113.902C574.917 113.668 574.753 113.468 574.542 113.326C574.332 113.185 574.084 113.11 573.83 113.11C573.492 113.11 573.168 113.243 572.929 113.481C572.689 113.719 572.553 114.042 572.55 114.38Z" fill="#683F1D"/>
<path d="M600.19 121.06C599.228 122.143 598.578 123.467 598.31 124.89" stroke="#F4A789" stroke-width="0.68" stroke-linecap="round" stroke-linejoin="round"/>
<path d="M601.59 125.43C603.81 120.43 608.59 120.13 611.34 122.36" stroke="#F4A789" stroke-width="0.68" stroke-linecap="round" stroke-linejoin="round"/>
<path d="M602.72 123.51C606.97 120.68 609.46 128.11 603.9 128.11" stroke="#F4A789" stroke-width="0.68" stroke-linecap="round" stroke-linejoin="round"/>
<path d="M569.92 108.8C570.25 109.86 577.08 109.25 576.92 106.86C576.66 103.65 569.3 106.79 569.92 108.8Z" fill="#B25E47"/>
<path d="M582.04 106.69C581.82 108.84 588.42 110.69 589.04 109.56C589.66 108.43 582.45 102.61 582.04 106.69Z" fill="#B25E47"/>
<path d="M573.58 121.46C573.38 119.46 574.44 117.21 575.88 116.7C577.32 116.19 579.55 114.8 579.05 109.61" stroke="#F4A789" stroke-width="0.68" stroke-linecap="round" stroke-linejoin="round"/>
<path d="M575.11 125.43C577.67 125.43 581.66 123.49 582.3 122.7C582.3 122.7 582.6 128.85 579.12 129.29C576.19 129.67 575.11 125.43 575.11 125.43Z" fill="white" stroke="#F4A789" stroke-width="0.68" stroke-linecap="round" stroke-linejoin="round"/>
<path d="M604.06 135.37C606.264 135.37 608.05 133.584 608.05 131.38C608.05 129.176 606.264 127.39 604.06 127.39C601.856 127.39 600.07 129.176 600.07 131.38C600.07 133.584 601.856 135.37 604.06 135.37Z" fill="white"/>
<path d="M595.44 119.35C596.17 121.15 594.51 123.53 591.71 124.67C588.91 125.81 586.06 125.28 585.32 123.48C584.58 121.68 586.25 119.29 589.05 118.15C591.85 117.01 594.7 117.55 595.44 119.35Z" fill="#F4A789"/>
<path d="M571.26 123.75C570.46 125.13 568.35 125.48 566.16 124.75C566.573 122.385 567.131 120.047 567.83 117.75L568.29 118C570.91 119.48 572.24 122.07 571.26 123.75Z" fill="#F4A789"/>
<path d="M438.44 383.67L488.92 372.07L533.4 387.29L489.99 402.12L438.44 383.67Z" stroke="#DDDDDD" stroke-width="0.9" stroke-linecap="round" stroke-linejoin="round"/>
<path d="M467.67 374.2V383.67C467.67 386.82 475.77 389.37 485.77 389.37C495.77 389.37 503.88 386.82 503.88 383.67V374.2H467.67Z" fill="#DDDDDD" stroke="#DDDDDD" stroke-width="0.9" stroke-miterlimit="10"/>
<path d="M485.77 379.45C475.21 379.45 468.12 376.74 468.12 374.2C468.12 371.66 475.21 368.95 485.77 368.95C496.33 368.95 503.42 371.67 503.42 374.2C503.42 376.73 496.33 379.45 485.77 379.45Z" fill="#F9F9F9"/>
<path d="M485.77 369.4C496.43 369.4 502.97 372.2 502.97 374.2C502.97 376.2 496.43 379 485.77 379C475.11 379 468.57 376.2 468.57 374.2C468.57 372.2 475.11 369.4 485.77 369.4ZM485.77 368.5C475.77 368.5 467.67 371.05 467.67 374.2C467.67 377.35 475.77 379.9 485.77 379.9C495.77 379.9 503.88 377.35 503.88 374.2C503.88 371.05 495.77 368.5 485.77 368.5Z" fill="#DDDDDD"/>
<path d="M452.52 383.95C452.52 384.57 453.59 385.08 454.91 385.08C456.23 385.08 457.3 384.57 457.3 383.95C457.3 383.33 456.23 382.82 454.91 382.82C453.59 382.82 452.52 383.33 452.52 383.95Z" fill="#DDDDDD"/>
<path d="M488.05 396.99C488.05 397.61 489.12 398.12 490.44 398.12C491.76 398.12 492.82 397.61 492.82 396.99C492.82 396.37 491.75 395.86 490.44 395.86C489.13 395.86 488.05 396.37 488.05 396.99Z" fill="#DDDDDD"/>
<path d="M517.84 387.09C517.84 387.71 518.91 388.22 520.23 388.22C521.55 388.22 522.62 387.71 522.62 387.09C522.62 386.47 521.55 385.96 520.23 385.96C518.91 385.96 517.84 386.47 517.84 387.09Z" fill="#DDDDDD"/>
<path d="M1 342.2C36.91 341.08 76.19 340.39 117.19 340.27C154.07 340.17 192.35 340.55 230.77 341.54C238.817 341.74 246.873 341.973 254.94 342.24C303.07 343.81 351.08 346.37 396.57 350.19C404.243 350.817 411.84 351.483 419.36 352.19C444.86 354.62 471.49 358.19 498.17 362.74C519.89 366.4 541.64 370.65 562.84 375.35C607.19 385.15 649.09 396.86 683.16 408.98C718.4 421.53 745.26 434.54 757.77 446.4" stroke="#DDDDDD" stroke-width="1.81" stroke-linecap="round" stroke-linejoin="round"/>
<path d="M441.39 395.27C425.24 403.63 330.45 428.27 330.45 428.27L321.77 419.68L266.37 364.89C266.37 364.89 319.24 354.27 329.1 355.46C337.34 356.46 411.27 376.17 434.89 387.96C439.51 390.32 442.58 394.66 441.39 395.27Z" stroke="#DDDDDD" stroke-width="0.9" stroke-linecap="round" stroke-linejoin="round"/>
<path d="M268.77 373.4C308.14 366.74 323.65 362.4 329.21 363.92C334.77 365.44 409.9 386.76 408.64 387.09C373.37 396.33 310.5 411.04 310.5 411.04L268.77 373.4Z" stroke="#DDDDDD" stroke-width="0.9" stroke-linecap="round" stroke-linejoin="round"/>
<path d="M441.39 395.27C425.24 403.63 330.45 428.27 330.45 428.27L321.77 419.68L434.89 388.02C439.51 390.32 442.58 394.66 441.39 395.27Z" fill="#DDDDDD"/>
<path d="M211.58 336.85C201.76 318.61 207.66 288.67 224.2 286.43C240.74 284.19 262.67 305.59 271.2 294.97C280.46 283.4 272.93 227.57 273 217.48L314.49 213.27C314.49 213.27 306.58 289.12 317.42 297.95C323.77 303.12 331.2 302.4 335.65 293.06C339.65 284.58 345.3 277.75 355.43 285.61C355.43 285.61 361.11 272.4 383.11 277.61C405.11 282.82 392.39 308.19 387.27 311.61C387.27 311.61 397.27 320.44 394.1 331.61C390.93 342.78 374.8 347.91 374.8 347.91C374.8 347.91 381.49 363.16 368.11 368.02C354.73 372.88 346.05 371.17 337.26 368.02C328.47 364.87 313.26 357.02 304.7 369.07C296.14 381.12 236.71 383.56 211.58 336.85Z" fill="#F9F9F9" stroke="#DDDDDD" stroke-width="1.81" stroke-linecap="round" stroke-linejoin="round"/>
<path d="M268.77 238.16C260.63 240.47 256.5 249.16 254.34 257.77C252.18 266.38 253.04 267.82 250.64 265.71C248.07 263.45 242.5 247.38 245.49 222.86C247.71 204.65 255.9 196.24 260.62 192.86C261.971 207.91 264.679 222.807 268.71 237.37C268.745 237.632 268.765 237.896 268.77 238.16Z" fill="#DDDDDD" stroke="#DDDDDD" stroke-width="1.81" stroke-linecap="round" stroke-linejoin="round"/>
<path d="M336 265.71C333.6 267.82 334.43 266.36 332.29 257.77C330.15 249.18 326.01 240.47 317.87 238.16C317.873 237.899 317.89 237.639 317.92 237.38C321.965 222.81 324.677 207.902 326.02 192.84C330.74 196.25 338.93 204.66 341.15 222.84C344.13 247.38 338.58 263.45 336 265.71Z" fill="#DDDDDD" stroke="#DDDDDD" stroke-width="1.81" stroke-linecap="round" stroke-linejoin="round"/>
<path d="M326.02 192.83C324.677 207.892 321.965 222.8 317.92 237.37C317.54 238.67 317.17 239.95 316.78 241.19H269.85C269.46 239.94 269.08 238.65 268.71 237.34C264.678 222.777 261.971 207.88 260.62 192.83C258.46 169.83 258.92 144.13 263.94 119.48C264.59 116.31 265.29 113.27 266.04 110.38C275.78 72.6201 293.32 57.1201 293.32 57.1201C293.32 57.1201 310.87 72.6201 320.6 110.38C321.35 113.27 322.06 116.31 322.7 119.48C327.72 144.13 328.19 169.79 326.02 192.83Z" fill="#F9F9F9" stroke="#DDDDDD" stroke-width="1.81" stroke-linecap="round" stroke-linejoin="round"/>
<path d="M320.6 110.38H266.04C275.78 72.6201 293.32 57.1201 293.32 57.1201C293.32 57.1201 310.87 72.6201 320.6 110.38Z" fill="#DDDDDD" stroke="#DDDDDD" stroke-width="0.9" stroke-miterlimit="10"/>
<path d="M306.36 155.95C304.65 157.667 302.618 159.03 300.38 159.96C298.143 160.89 295.743 161.369 293.32 161.369C290.897 161.369 288.497 160.89 286.26 159.96C284.022 159.03 281.99 157.667 280.28 155.95C276.836 152.486 274.904 147.8 274.904 142.915C274.904 138.031 276.836 133.344 280.28 129.88C281.99 128.163 284.022 126.8 286.26 125.87C288.497 124.94 290.897 124.462 293.32 124.462C295.743 124.462 298.143 124.94 300.38 125.87C302.618 126.8 304.65 128.163 306.36 129.88C307.477 130.994 308.445 132.248 309.24 133.61C311.293 137.13 312.123 141.229 311.602 145.27C311.081 149.311 309.238 153.066 306.36 155.95Z" fill="#DDDDDD" stroke="#F9F9F9" stroke-width="1.81" stroke-linecap="round" stroke-linejoin="round"/>
<path d="M309.24 133.61L284.01 158.84C282.649 158.039 281.395 157.068 280.28 155.95C279.166 154.833 278.201 153.576 277.41 152.21L302.63 126.99C303.991 127.791 305.245 128.762 306.36 129.88C307.477 130.994 308.445 132.248 309.24 133.61Z" fill="#F9F9F9"/>
<path d="M293.32 188.91C285.44 199.37 281.32 252.28 293.32 266.57C305.34 252.27 301.19 199.37 293.32 188.91Z" fill="#DDDDDD" stroke="#DDDDDD" stroke-width="0.9" stroke-miterlimit="10"/>
<path d="M306.36 155.95C304.65 157.667 302.618 159.03 300.38 159.96C298.143 160.89 295.743 161.369 293.32 161.369C290.897 161.369 288.497 160.89 286.26 159.96C284.022 159.03 281.99 157.667 280.28 155.95C276.836 152.486 274.904 147.8 274.904 142.915C274.904 138.031 276.836 133.344 280.28 129.88C281.99 128.163 284.022 126.8 286.26 125.87C288.497 124.94 290.897 124.462 293.32 124.462C295.743 124.462 298.143 124.94 300.38 125.87C302.618 126.8 304.65 128.163 306.36 129.88C307.477 130.994 308.445 132.248 309.24 133.61C311.293 137.13 312.123 141.229 311.602 145.27C311.081 149.311 309.238 153.066 306.36 155.95V155.95Z" stroke="#DDDDDD" stroke-width="1.81" stroke-linecap="round" stroke-linejoin="round"/>
<path d="M387.27 311.62C385.265 313.114 383.167 314.48 380.99 315.71" stroke="#DDDDDD" stroke-width="1.81" stroke-linecap="round" stroke-linejoin="round"/>
<path d="M370.26 318.73C365.04 313.42 352.33 315.79 350.32 328.02C348.31 340.25 359.04 350.93 374.8 347.96" stroke="#DDDDDD" stroke-width="1.81" stroke-linecap="round" stroke-linejoin="round"/>
<path d="M286.84 269.71C288.84 283.87 288.04 308.46 287.92 310.02" stroke="#DDDDDD" stroke-width="1.81" stroke-linecap="round" stroke-linejoin="round"/>
<path d="M313.19 330.41C305.39 322.25 301.67 316.97 301.67 282.31" stroke="#DDDDDD" stroke-width="1.81" stroke-linecap="round" stroke-linejoin="round"/>
<path d="M170.79 274.08L282.5 317.84L336.59 425.7L216.36 372.68L164.65 276.71L170.79 274.08Z" fill="#DDDDDD"/>
<path d="M164.65 276.71L276.36 320.47L330.45 428.33L210.23 375.31L164.65 276.71Z" fill="#F9F9F9" stroke="#DDDDDD" stroke-width="0.9" stroke-linecap="round" stroke-linejoin="round"/>
</svg>
